# Blender 4.0.2
# www.blender.org
mtllib flower_a.mtl
o flower_a
v -0.000000 0.000000 -0.003184
v -0.000000 0.323821 -0.003184
v 0.002758 0.000000 0.001592
v 0.002758 0.323761 0.001592
v -0.002758 0.000000 0.001592
v -0.002758 0.323761 0.001592
v -0.041657 0.339227 0.041657
v 0.041657 0.339227 0.041657
v -0.041657 0.339227 -0.041657
v 0.041657 0.339227 -0.041657
v -0.041657 0.332766 -0.000000
v -0.000000 0.332766 0.041657
v 0.041657 0.332766 -0.000000
v -0.000000 0.332766 -0.041657
v -0.000000 0.324662 -0.000000
v 0.009883 0.161911 0.005776
v 0.012641 0.161881 0.010552
v 0.007125 0.161881 0.010552
v -0.001302 -0.001009 -0.002334
v -0.048975 0.270807 -0.093251
v 0.002816 0.000483 -0.000031
v -0.044848 0.272249 -0.090931
v -0.001514 0.000526 0.002366
v -0.049177 0.272291 -0.088535
v -0.065605 0.298269 -0.046602
v -0.000206 0.297630 -0.082807
v -0.099675 0.271865 -0.107678
v -0.034276 0.271226 -0.143883
v -0.081689 0.279644 -0.075326
v -0.031954 0.292526 -0.062890
v -0.016290 0.279004 -0.111531
v -0.066024 0.266122 -0.123966
v -0.047796 0.272522 -0.091153
v -0.013716 0.137662 -0.045519
v -0.009594 0.139130 -0.043208
v -0.013923 0.139172 -0.040811
v 0.001598 0.001279 -0.002673
v -0.125557 0.310831 0.069453
v 0.001527 -0.000071 0.002999
v -0.125603 0.309423 0.075112
v -0.003125 -0.001208 -0.000326
v -0.130256 0.308287 0.071786
v -0.189247 0.298963 0.085406
v -0.118965 0.316129 0.135637
v -0.147443 0.332428 0.015478
v -0.077161 0.349594 0.065709
v -0.165808 0.309519 0.049003
v -0.151569 0.301369 0.109082
v -0.095526 0.326685 0.099234
v -0.109765 0.334835 0.039154
v -0.127485 0.310355 0.072313
v -0.058138 0.154492 0.046869
v -0.058196 0.153113 0.052535
v -0.062849 0.151977 0.049209
v 0.002749 -0.001322 0.000914
v 0.115182 0.290480 0.084999
v -0.002385 0.000318 0.002086
v 0.110028 0.292066 0.086156
v -0.000364 0.001005 -0.003000
v 0.112049 0.292753 0.081070
v 0.097085 0.328172 0.037722
v 0.066560 0.317797 0.114544
v 0.169005 0.293572 0.061627
v 0.138480 0.283197 0.138449
v 0.130802 0.305050 0.047997
v 0.079579 0.317162 0.074455
v 0.100276 0.294675 0.124819
v 0.151499 0.282562 0.098360
v 0.112726 0.292560 0.084303
v 0.047610 0.147069 0.049499
v 0.042466 0.148682 0.050663
v 0.044487 0.149369 0.045577
vn 0.0336 0.3085 -0.9506
vn -0.0271 0.5399 -0.8413
vn 0.7084 0.5811 0.4006
vn 0.8126 0.3292 0.4810
vn -0.7449 0.5411 0.3903
vn -0.8001 0.3127 0.5120
vn -0.0273 -0.5338 -0.8452
vn 0.7072 -0.5840 0.3987
vn -0.7436 -0.5441 0.3885
vn -0.1722 0.9851 -0.0000
vn -0.0000 0.9851 0.1722
vn -0.0000 1.0000 -0.0000
vn 0.1722 0.9851 -0.0000
vn 0.1515 0.9768 0.1515
vn -0.0000 0.9851 -0.1722
vn 0.1515 0.9768 -0.1515
vn -0.1515 0.9768 0.1515
vn -0.1515 0.9768 -0.1515
vn -0.0000 1.0000 0.0063
vn -0.4545 -0.0475 -0.8895
vn -0.4957 0.2081 -0.8432
vn 0.7070 0.6791 -0.1976
vn 0.8761 0.4709 -0.1035
vn -0.5626 0.6504 0.5104
vn -0.5179 0.4802 0.7079
vn -0.3215 -0.7977 -0.5103
vn 0.8962 -0.4115 0.1659
vn -0.3842 -0.3654 0.8479
vn -0.3122 0.9230 -0.2249
vn -0.0832 0.9823 -0.1676
vn -0.1641 0.9355 -0.3129
vn -0.0110 0.9201 -0.3916
vn 0.0413 0.9660 -0.2552
vn -0.2401 0.8607 -0.4489
vn -0.0968 0.8590 -0.5028
vn -0.2238 0.9686 -0.1085
vn -0.3619 0.8616 -0.3560
vn -0.1612 0.9377 -0.3078
vn 0.3634 0.6467 -0.6706
vn 0.1772 0.8026 -0.5697
vn 0.1592 0.5113 0.8445
vn 0.2978 0.2732 0.9147
vn -0.9806 0.1958 -0.0010
vn -0.9976 -0.0677 0.0160
vn 0.5777 -0.1669 -0.7990
vn 0.5920 -0.5417 0.5968
vn -0.5757 -0.7845 -0.2303
vn -0.5033 0.8572 0.1094
vn -0.4476 0.8253 0.3442
vn -0.3714 0.9042 0.2107
vn -0.2285 0.9243 0.3057
vn -0.3138 0.8552 0.4125
vn -0.2842 0.9562 0.0709
vn -0.1700 0.9703 0.1719
vn -0.5556 0.7961 0.2397
vn -0.4118 0.9113 -0.0009
vn -0.3744 0.9018 0.2157
vn 0.9154 -0.1210 0.3838
vn 0.9236 0.1405 0.3566
vn -0.4036 0.6018 0.6891
vn -0.5987 0.3952 0.6967
vn 0.1239 0.7424 -0.6584
vn -0.0402 0.5940 -0.8034
vn 0.5542 -0.8286 0.0787
vn -0.8060 -0.4487 0.3860
vn -0.2519 -0.2363 -0.9385
vn 0.4051 0.9091 0.0970
vn 0.1934 0.9592 0.2064
vn 0.3472 0.9011 0.2597
vn 0.2789 0.8662 0.4145
vn 0.1528 0.9242 0.3499
vn 0.4906 0.8162 0.3052
vn 0.4144 0.7984 0.4368
vn 0.2639 0.9620 0.0705
vn 0.5254 0.8361 0.1574
vn 0.3418 0.9037 0.2579
vt 0.527090 0.284617
vt 0.527090 0.536683
vt 0.533453 0.532396
vt 0.533453 0.282473
vt 0.520726 0.532396
vt 0.520726 0.282473
vt 0.527090 0.032551
vt 0.533453 0.032551
vt 0.520726 0.032551
vt 0.452033 0.754589
vt 0.254835 0.951787
vt 0.254835 0.754589
vt 0.057638 0.754589
vt 0.057638 0.951787
vt 0.254835 0.557392
vt 0.057638 0.557392
vt 0.452033 0.951787
vt 0.452033 0.557392
vt 0.000000 0.000000
s 1
usemtl flowers
f 16/1/1 2/2/2 4/3/3 17/4/4
f 17/4/4 4/3/3 6/5/5 18/6/6
f 18/6/6 6/5/5 2/2/2 16/1/1
f 1/7/7 3/8/8 5/9/9
f 4/3/3 2/2/2 6/5/5
f 13/10/10 14/11/11 15/12/12
f 11/13/13 14/11/11 9/14/14
f 12/15/15 11/13/13 7/16/16
f 12/15/15 13/10/10 15/12/12
f 12/15/15 15/12/12 11/13/13
f 11/13/13 15/12/12 14/11/11
f 13/10/10 10/17/17 14/11/11
f 12/15/15 8/18/18 13/10/10
f 5/9/9 18/6/6 16/1/1 1/7/7
f 3/8/8 17/4/4 18/6/6 5/9/9
f 1/7/7 16/1/1 17/4/4 3/8/8
s 0
f 16/19/19 18/19/19 17/19/19
s 1
f 34/1/20 20/2/21 22/3/22 35/4/23
f 35/4/23 22/3/22 24/5/24 36/6/25
f 36/6/25 24/5/24 20/2/21 34/1/20
f 19/7/26 21/8/27 23/9/28
f 22/3/22 20/2/21 24/5/24
f 31/10/29 32/11/30 33/12/31
f 29/13/32 32/11/30 27/14/33
f 30/15/34 29/13/32 25/16/35
f 30/15/34 31/10/29 33/12/31
f 30/15/34 33/12/31 29/13/32
f 29/13/32 33/12/31 32/11/30
f 31/10/29 28/17/36 32/11/30
f 30/15/34 26/18/37 31/10/29
f 23/9/28 36/6/25 34/1/20 19/7/26
f 21/8/27 35/4/23 36/6/25 23/9/28
f 19/7/26 34/1/20 35/4/23 21/8/27
s 0
f 34/19/38 36/19/38 35/19/38
s 1
f 52/1/39 38/2/40 40/3/41 53/4/42
f 53/4/42 40/3/41 42/5/43 54/6/44
f 54/6/44 42/5/43 38/2/40 52/1/39
f 37/7/45 39/8/46 41/9/47
f 40/3/41 38/2/40 42/5/43
f 49/10/48 50/11/49 51/12/50
f 47/13/51 50/11/49 45/14/52
f 48/15/53 47/13/51 43/16/54
f 48/15/53 49/10/48 51/12/50
f 48/15/53 51/12/50 47/13/51
f 47/13/51 51/12/50 50/11/49
f 49/10/48 46/17/55 50/11/49
f 48/15/53 44/18/56 49/10/48
f 41/9/47 54/6/44 52/1/39 37/7/45
f 39/8/46 53/4/42 54/6/44 41/9/47
f 37/7/45 52/1/39 53/4/42 39/8/46
s 0
f 52/19/57 54/19/57 53/19/57
s 1
f 70/1/58 56/2/59 58/3/60 71/4/61
f 71/4/61 58/3/60 60/5/62 72/6/63
f 72/6/63 60/5/62 56/2/59 70/1/58
f 55/7/64 57/8/65 59/9/66
f 58/3/60 56/2/59 60/5/62
f 67/10/67 68/11/68 69/12/69
f 65/13/70 68/11/68 63/14/71
f 66/15/72 65/13/70 61/16/73
f 66/15/72 67/10/67 69/12/69
f 66/15/72 69/12/69 65/13/70
f 65/13/70 69/12/69 68/11/68
f 67/10/67 64/17/74 68/11/68
f 66/15/72 62/18/75 67/10/67
f 59/9/66 72/6/63 70/1/58 55/7/64
f 57/8/65 71/4/61 72/6/63 59/9/66
f 55/7/64 70/1/58 71/4/61 57/8/65
s 0
f 70/19/76 72/19/76 71/19/76
