# Blender 4.0.2
# www.blender.org
mtllib flower_b.mtl
o flower_b
v 0.000000 0.000000 -0.005039
v -0.000000 0.173166 -0.004943
v 0.004364 0.000000 0.002520
v 0.004364 0.171693 0.002471
v -0.004364 0.000000 0.002520
v -0.004364 0.171693 0.002471
v 0.005056 0.208828 0.018237
v 0.000000 0.213887 0.011089
v -0.005056 0.208828 0.018237
v 0.009831 0.232863 0.049268
v 0.000000 0.245538 0.037897
v -0.009831 0.232863 0.049268
v -0.062431 0.215357 0.112158
v 0.061733 0.215357 0.112158
v -0.062431 0.304943 0.026187
v 0.061733 0.304943 0.026187
v -0.062431 0.240673 0.050417
v -0.000349 0.195880 0.093402
v 0.061733 0.240673 0.050417
v -0.000349 0.285466 0.007432
v -0.000349 0.234662 0.042602
v 0.009528 0.241183 0.041804
v -0.009528 0.241183 0.041804
v 0.000000 0.228898 0.052825
v 0.005754 0.243141 0.047251
v -0.000000 0.245771 0.044891
v -0.000000 0.235723 0.053906
v 0.005937 0.238117 0.051758
v -0.005754 0.243141 0.047251
v -0.005937 0.238117 0.051758
v 0.002680 0.000437 0.005093
v 0.007976 0.197706 -0.014729
v -0.005765 0.000131 -0.000248
v -0.000437 0.195736 -0.019756
v 0.003085 -0.000568 -0.004845
v 0.008413 0.195036 -0.024353
v -0.008377 0.236731 -0.039555
v 0.000707 0.242708 -0.035570
v 0.001876 0.235920 -0.044881
v -0.028979 0.261807 -0.071140
v -0.012572 0.276444 -0.066269
v -0.009043 0.260231 -0.081495
v 0.010301 0.230624 -0.170764
v -0.115589 0.240574 -0.105373
v 0.058789 0.340132 -0.094080
v -0.067102 0.350082 -0.028688
v 0.043918 0.264814 -0.111248
v -0.043271 0.215035 -0.116894
v -0.081972 0.274764 -0.045856
v 0.005217 0.324543 -0.040210
v -0.015057 0.263618 -0.069970
v -0.024446 0.271908 -0.064704
v -0.005124 0.270380 -0.074740
v -0.021025 0.256194 -0.079461
v -0.023455 0.273364 -0.072419
v -0.016285 0.276104 -0.073365
v -0.021389 0.263875 -0.081331
v -0.026192 0.267265 -0.076306
v -0.011787 0.272442 -0.078480
v -0.014153 0.266313 -0.082559
vn -0.0000 -0.5520 -0.8339
vn -0.0000 0.1878 -0.9822
vn 0.9121 -0.0888 0.4003
vn 0.7207 -0.5559 0.4142
vn -0.9121 -0.0888 0.4003
vn -0.7207 -0.5559 0.4142
vn -0.9139 -0.3544 0.1981
vn -0.0000 0.4425 -0.8968
vn -0.8291 -0.1648 0.5342
vn -0.8321 0.5428 -0.1136
vn -0.0000 0.9057 -0.4238
vn 0.9139 -0.3544 0.1981
vn 0.8291 -0.1648 0.5342
vn -0.0000 -0.5314 0.8471
vn 0.8321 0.5428 -0.1136
vn -0.0000 0.6908 0.7231
vn -0.2741 0.4417 0.8543
vn -0.0000 0.5692 0.8222
vn 0.2741 0.4417 0.8543
vn 0.1557 0.6919 0.7050
vn 0.2728 0.8363 0.4756
vn -0.2728 0.8363 0.4756
vn -0.0000 0.7949 0.6068
vn -0.1557 0.6919 0.7050
vn -0.4563 0.7637 0.4568
vn -0.0000 0.9602 0.2793
vn 0.4563 0.7637 0.4568
vn -0.4575 0.3704 0.8084
vn -0.0000 0.1754 0.9845
vn 0.4575 0.3704 0.8084
vn 0.3723 -0.4860 0.7907
vn 0.4611 0.2611 0.8481
vn -0.9957 -0.0548 0.0750
vn -0.8453 -0.5339 0.0212
vn 0.6192 -0.1824 -0.7638
vn 0.4307 -0.6347 -0.6416
vn 0.7075 -0.4314 -0.5598
vn 0.4283 0.5080 0.7473
vn 0.4815 -0.2624 -0.8362
vn 0.8041 0.4903 -0.3363
vn 0.2212 0.9330 0.2839
vn -0.9106 -0.3035 0.2806
vn -0.9865 -0.1464 -0.0737
vn -0.4077 -0.5926 -0.6947
vn -0.6692 0.6067 0.4289
vn -0.3171 0.6324 -0.7068
vn -0.1421 0.3555 -0.9238
vn -0.3664 0.5040 -0.7821
vn -0.6274 0.3939 -0.6717
vn -0.4466 0.6457 -0.6193
vn -0.4397 0.8150 -0.3774
vn 0.0432 0.7768 -0.6282
vn -0.2603 0.7447 -0.6145
vn -0.1709 0.6240 -0.7626
vn 0.2124 0.6931 -0.6888
vn -0.1038 0.9340 -0.3420
vn -0.5954 0.7570 -0.2692
vn 0.0396 0.2753 -0.9606
vn -0.4524 0.1000 -0.8862
vn -0.7704 0.3393 -0.5399
vt 0.527090 0.032551
vt 0.527090 0.536683
vt 0.533453 0.532396
vt 0.533453 0.032551
vt 0.520726 0.532396
vt 0.520726 0.032551
vt 0.519718 0.640505
vt 0.527090 0.655232
vt 0.503948 0.699576
vt 0.515519 0.729364
vt 0.527090 0.759152
vt 0.534461 0.640505
vt 0.550231 0.699576
vt 0.527089 0.699576
vt 0.538660 0.729364
vt 0.776599 0.746715
vt 0.959544 0.929660
vt 0.776599 0.929660
vt 0.593654 0.929660
vt 0.593654 0.746715
vt 0.593654 0.563770
vt 0.959544 0.563770
vt 0.776599 0.563770
vt 0.959544 0.746715
s 1
usemtl flowers
f 1/1/1 2/2/2 4/3/3 3/4/4
f 3/4/4 4/3/3 6/5/5 5/6/6
f 2/2/2 6/5/5 9/7/7 8/8/8
f 5/6/6 6/5/5 2/2/2 1/1/1
f 1/1/1 3/4/4 5/6/6
f 8/8/8 9/7/7 12/9/9 23/10/10 11/11/11
f 6/5/5 4/3/3 7/12/12 9/7/7
f 4/3/3 2/2/2 8/8/8 7/12/12
f 9/7/7 7/12/12 10/13/13 24/14/14 12/9/9
f 7/12/12 8/8/8 11/11/11 22/15/15 10/13/13
f 21/16/16 16/17/17 20/18/18
f 21/16/16 15/19/19 17/20/20
f 13/21/21 21/16/16 17/20/20
f 14/22/22 21/16/16 18/23/23
f 21/16/16 20/18/18 15/19/19
f 21/16/16 19/24/24 16/17/17
f 13/21/21 18/23/23 21/16/16
f 14/22/22 19/24/24 21/16/16
f 11/11/11 23/10/10 29/10/25 26/11/26
f 25/15/27 26/11/26 29/10/25 30/9/28 27/14/29 28/13/30
f 24/14/14 10/13/13 28/13/30 27/14/29
f 12/9/9 24/14/14 27/14/29 30/9/28
f 23/10/10 12/9/9 30/9/28 29/10/25
f 22/15/15 11/11/11 26/11/26 25/15/27
f 10/13/13 22/15/15 25/15/27 28/13/30
f 31/1/31 32/2/32 34/3/33 33/4/34
f 33/4/34 34/3/33 36/5/35 35/6/36
f 32/2/32 36/5/35 39/7/37 38/8/38
f 35/6/36 36/5/35 32/2/32 31/1/31
f 31/1/31 33/4/34 35/6/36
f 38/8/38 39/7/37 42/9/39 53/10/40 41/11/41
f 36/5/35 34/3/33 37/12/42 39/7/37
f 34/3/33 32/2/32 38/8/38 37/12/42
f 39/7/37 37/12/42 40/13/43 54/14/44 42/9/39
f 37/12/42 38/8/38 41/11/41 52/15/45 40/13/43
f 51/16/46 46/17/47 50/18/48
f 51/16/46 45/19/49 47/20/50
f 43/21/51 51/16/46 47/20/50
f 44/22/52 51/16/46 48/23/53
f 51/16/46 50/18/48 45/19/49
f 51/16/46 49/24/54 46/17/47
f 43/21/51 48/23/53 51/16/46
f 44/22/52 49/24/54 51/16/46
f 41/11/41 53/10/40 59/10/55 56/11/56
f 55/15/57 56/11/56 59/10/55 60/9/58 57/14/59 58/13/60
f 54/14/44 40/13/43 58/13/60 57/14/59
f 42/9/39 54/14/44 57/14/59 60/9/58
f 53/10/40 42/9/39 60/9/58 59/10/55
f 52/15/45 41/11/41 56/11/56 55/15/57
f 40/13/43 52/15/45 55/15/57 58/13/60
