# Blender 4.4.0
# www.blender.org
o Greatsword
v -0.034374 -0.320180 0.000000
v 0.020923 -0.304015 0.000000
v -0.020923 -0.304015 0.000000
v 0.020923 -0.227457 0.000000
v -0.020923 -0.227457 0.000000
v -0.166118 -0.183446 0.000000
v 0.166118 -0.183446 0.000000
v 0.166118 -0.180543 0.000000
v -0.166118 -0.180543 0.000000
v -0.117371 -0.211851 0.000000
v 0.117371 -0.211851 0.000000
v 0.117371 -0.152138 0.000000
v -0.117371 -0.152138 0.000000
v 0.023745 -0.095887 0.000000
v 0.022118 -0.129347 0.000000
v -0.023745 -0.095887 0.000000
v -0.022118 -0.129347 0.000000
v -0.036901 -0.161452 0.000000
v 0.036901 -0.161452 0.000000
v 0.036901 -0.202537 0.000000
v -0.036901 -0.202537 0.000000
v -0.102170 -0.202537 0.000000
v 0.102169 -0.202537 0.000000
v 0.102170 -0.161452 0.000000
v -0.102170 -0.161452 0.000000
v -0.102170 -0.197273 0.012342
v -0.102170 -0.166715 0.012342
v 0.102170 -0.166715 0.012342
v 0.102170 -0.197274 0.012342
v -0.036901 -0.197273 0.012342
v 0.036901 -0.197273 0.012342
v 0.036901 -0.166715 0.012342
v -0.036901 -0.166715 0.012342
v -0.013808 -0.129347 0.012342
v -0.014043 -0.095887 0.019634
v 0.013808 -0.129347 0.012342
v 0.014043 -0.095887 0.019634
v -0.117371 -0.159788 0.012342
v 0.117371 -0.159788 0.012342
v 0.117371 -0.204201 0.012342
v -0.117371 -0.204201 0.012342
v -0.156587 -0.180915 0.012342
v 0.156587 -0.180915 0.012342
v 0.156587 -0.183074 0.012342
v -0.156587 -0.183074 0.012342
v -0.016538 -0.227457 0.012342
v 0.016537 -0.227457 0.012342
v -0.016538 -0.304015 0.012342
v 0.016537 -0.304015 0.012342
v -0.027169 -0.320180 0.012342
v 0.027169 -0.320180 0.012342
v -0.001323 -0.362983 0.012342
v 0.001323 -0.362983 0.012342
v 0.034374 -0.320180 0.000000
v -0.001674 -0.373388 0.000000
v 0.001673 -0.373388 0.000000
v 0.006004 -0.181985 0.020598
v -0.000042 -0.175938 0.020598
v -0.000042 -0.188032 0.020598
v -0.006089 -0.181985 0.020598
v 0.019063 -0.173099 0.016317
v -0.019148 -0.173099 0.016317
v 0.019063 -0.190872 0.016317
v -0.019148 -0.190872 0.016317
v 0.008844 -0.163998 0.016696
v -0.008929 -0.163998 0.016696
v 0.008844 -0.199973 0.016696
v -0.008929 -0.199973 0.016696
v 0.027516 -0.180770 0.013814
v -0.027601 -0.180770 0.013814
v 0.027516 -0.183200 0.013814
v -0.027601 -0.183200 0.013814
v 0.001188 -0.156039 0.014472
v -0.001273 -0.156039 0.014472
v 0.001188 -0.207931 0.014472
v -0.001273 -0.207931 0.014472
v -0.006906 -0.168548 0.018480
v 0.008844 -0.190872 0.019017
v 0.008844 -0.173099 0.019017
v -0.008929 -0.173099 0.019017
v -0.008929 -0.190872 0.019017
v 0.006821 -0.168548 0.018480
v 0.006821 -0.195422 0.018480
v -0.006906 -0.195422 0.018480
v 0.013954 -0.175677 0.018423
v 0.013954 -0.188294 0.018423
v -0.014038 -0.188294 0.018423
v -0.014038 -0.175677 0.018423
v -0.000042 -0.185378 0.022829
v 0.003351 -0.181985 0.022829
v -0.000042 -0.178592 0.022829
v -0.003435 -0.181985 0.022829
v 0.008844 -0.190872 0.011203
v 0.008844 -0.173099 0.011203
v -0.008929 -0.173099 0.011203
v -0.008929 -0.190872 0.011203
v 0.019063 -0.190872 0.008503
v 0.019063 -0.173099 0.008503
v -0.019148 -0.173099 0.008503
v -0.019148 -0.190872 0.008503
v -0.014038 -0.188294 0.010609
v -0.014038 -0.175677 0.010609
v 0.013954 -0.175677 0.010609
v 0.013954 -0.188294 0.010609
v 0.008844 -0.163998 0.008882
v -0.008929 -0.163998 0.008882
v -0.008929 -0.199973 0.008882
v 0.008844 -0.199973 0.008882
v 0.006821 -0.195422 0.010666
v -0.006906 -0.195422 0.010666
v -0.006906 -0.168548 0.010666
v 0.006821 -0.168548 0.010666
v 0.027516 -0.183200 0.006000
v 0.027516 -0.180770 0.006000
v -0.027601 -0.180770 0.006000
v -0.027601 -0.183200 0.006000
v 0.001188 -0.156039 0.006658
v -0.001273 -0.156039 0.006658
v -0.001273 -0.207931 0.006658
v 0.001188 -0.207931 0.006658
v -0.102170 -0.197273 -0.012342
v -0.102170 -0.166715 -0.012342
v 0.102170 -0.166715 -0.012342
v 0.102170 -0.197274 -0.012342
v -0.036901 -0.197273 -0.012342
v 0.036901 -0.197273 -0.012342
v 0.036901 -0.166715 -0.012342
v -0.036901 -0.166715 -0.012342
v -0.013808 -0.129347 -0.012342
v -0.014043 -0.095887 -0.019634
v 0.013808 -0.129347 -0.012342
v 0.014043 -0.095887 -0.019634
v -0.117371 -0.159788 -0.012342
v 0.117371 -0.159788 -0.012342
v 0.117371 -0.204201 -0.012342
v -0.117371 -0.204201 -0.012342
v -0.156587 -0.180915 -0.012342
v 0.156587 -0.180915 -0.012342
v 0.156587 -0.183074 -0.012342
v -0.156587 -0.183074 -0.012342
v -0.016538 -0.227457 -0.012342
v 0.016537 -0.227457 -0.012342
v -0.016538 -0.304015 -0.012342
v 0.016537 -0.304015 -0.012342
v -0.027169 -0.320180 -0.012342
v 0.027169 -0.320180 -0.012342
v -0.001323 -0.362983 -0.012342
v 0.001323 -0.362983 -0.012342
v 0.006004 -0.181985 -0.020598
v -0.000042 -0.175938 -0.020598
v -0.000042 -0.188032 -0.020598
v -0.006089 -0.181985 -0.020598
v 0.019063 -0.173099 -0.016317
v -0.019148 -0.173099 -0.016317
v 0.019063 -0.190872 -0.016317
v -0.019148 -0.190872 -0.016317
v 0.008844 -0.163998 -0.016696
v -0.008929 -0.163998 -0.016696
v 0.008844 -0.199973 -0.016696
v -0.008929 -0.199973 -0.016696
v 0.027516 -0.180770 -0.013814
v -0.027601 -0.180770 -0.013814
v 0.027516 -0.183200 -0.013814
v -0.027601 -0.183200 -0.013814
v 0.001188 -0.156039 -0.014472
v -0.001273 -0.156039 -0.014472
v 0.001188 -0.207931 -0.014472
v -0.001273 -0.207931 -0.014472
v -0.006906 -0.168548 -0.018480
v 0.008844 -0.190872 -0.019017
v 0.008844 -0.173099 -0.019017
v -0.008929 -0.173099 -0.019017
v -0.008929 -0.190872 -0.019017
v 0.006821 -0.168548 -0.018480
v 0.006821 -0.195422 -0.018480
v -0.006906 -0.195422 -0.018480
v 0.013954 -0.175677 -0.018423
v 0.013954 -0.188294 -0.018423
v -0.014038 -0.188294 -0.018423
v -0.014038 -0.175677 -0.018423
v -0.000042 -0.185378 -0.022829
v 0.003351 -0.181985 -0.022829
v -0.000042 -0.178592 -0.022829
v -0.003435 -0.181985 -0.022829
v 0.008844 -0.190872 -0.011203
v 0.008844 -0.173099 -0.011203
v -0.008929 -0.173099 -0.011203
v -0.008929 -0.190872 -0.011203
v 0.019063 -0.190872 -0.008503
v 0.019063 -0.173099 -0.008503
v -0.019148 -0.173099 -0.008503
v -0.019148 -0.190872 -0.008503
v -0.014038 -0.188294 -0.010609
v -0.014038 -0.175677 -0.010609
v 0.013954 -0.175677 -0.010609
v 0.013954 -0.188294 -0.010609
v 0.008844 -0.163998 -0.008882
v -0.008929 -0.163998 -0.008882
v -0.008929 -0.199973 -0.008882
v 0.008844 -0.199973 -0.008882
v 0.006821 -0.195422 -0.010666
v -0.006906 -0.195422 -0.010666
v -0.006906 -0.168548 -0.010666
v 0.006821 -0.168548 -0.010666
v 0.027516 -0.183200 -0.006000
v 0.027516 -0.180770 -0.006000
v -0.027601 -0.180770 -0.006000
v -0.027601 -0.183200 -0.006000
v 0.001188 -0.156039 -0.006658
v -0.001273 -0.156039 -0.006658
v -0.001273 -0.207931 -0.006658
v 0.001188 -0.207931 -0.006658
v 0.033268 0.102230 -0.025881
v -0.033268 0.102230 -0.025881
v 0.033268 0.102230 0.025881
v -0.033268 0.102230 0.025881
v -0.053289 0.102230 0.000000
v 0.053289 0.102230 0.000000
v 0.025300 0.155297 -0.019682
v -0.025300 0.155297 -0.019682
v 0.025300 0.155297 0.019682
v -0.025300 0.155297 0.019682
v -0.040525 0.155297 0.000000
v 0.040525 0.155297 0.000000
v 0.194945 0.102230 0.000000
v 0.121703 0.102230 -0.019682
v -0.121703 0.102230 -0.019682
v -0.194945 0.102230 0.000000
v 0.121703 0.102230 0.019682
v -0.121703 0.102230 0.019682
v 0.194945 0.155297 0.000000
v 0.121703 0.155297 -0.019682
v -0.121703 0.155297 -0.019682
v -0.194945 0.155297 0.000000
v 0.121703 0.155297 0.019682
v -0.121703 0.155297 0.019682
v 0.028116 0.102230 -0.033430
v -0.028116 0.102230 -0.033430
v 0.028116 0.102230 0.033430
v -0.028116 0.102230 0.033430
v 0.028116 0.155297 -0.033430
v -0.028116 0.155297 -0.033430
v 0.028116 0.155297 0.033430
v -0.028116 0.155297 0.033430
v 0.135251 0.155297 0.033430
v 0.135251 0.102230 0.033430
v 0.202949 0.102230 0.000000
v 0.135251 0.102230 -0.033430
v -0.135251 0.102230 -0.033430
v -0.202949 0.102230 0.000000
v -0.135251 0.102230 0.033430
v 0.202949 0.155297 0.000000
v 0.135251 0.155297 -0.033430
v -0.135251 0.155297 -0.033430
v -0.202949 0.155297 0.000000
v -0.135251 0.155297 0.033430
v 0.014043 0.079417 0.019634
v -0.014043 0.079417 0.019634
v -0.023745 0.079417 0.000000
v -0.014043 0.079417 -0.019634
v 0.014043 0.079417 -0.019634
v 0.023745 0.079417 0.000000
v -0.023331 -0.112617 0.000000
v 0.023331 -0.112617 0.000000
v -0.014566 -0.112617 0.011927
v 0.014565 -0.112617 0.011927
v -0.014566 -0.112617 -0.011927
v 0.014565 -0.112617 -0.011927
v -0.134653 0.305604 -0.000000
v 0.134653 0.305604 -0.000000
v -0.142739 1.208910 0.000000
v 0.140718 1.208910 0.000000
v -0.144659 0.149324 -0.000000
v 0.144659 0.149324 -0.000000
v -0.146464 1.236371 0.000000
v 0.149217 1.228387 0.000000
v -0.140442 1.250344 0.000000
v 0.138179 1.246252 0.000000
v -0.147300 1.265820 0.000000
v 0.146964 1.257635 0.000000
v -0.112060 1.329219 0.000000
v 0.110520 1.321516 0.000000
v -0.118530 1.346692 0.000000
v 0.116990 1.338988 0.000000
v -0.101506 1.374148 0.000000
v 0.102614 1.374148 0.000000
v -0.079986 1.440044 0.000000
v 0.077965 1.440044 0.000000
v -0.048532 1.546875 0.000000
v 0.057639 1.547578 0.000000
v -0.018715 1.703295 0.000000
v 0.020787 1.640134 0.000000
v -0.007712 0.305604 -0.000000
v 0.007390 0.305604 -0.000000
v 0.013455 1.208910 0.000000
v -0.015799 1.208910 0.000000
v -0.008274 0.149324 -0.000000
v 0.007952 0.149324 -0.000000
v 0.012349 1.233763 0.000000
v -0.014810 1.226942 0.000000
v 0.012738 1.247536 0.000000
v -0.013298 1.257582 0.000000
v 0.018096 1.273227 0.000000
v -0.020212 1.268485 0.000000
v 0.017873 1.333596 0.000000
v -0.009369 1.332831 0.000000
v 0.014681 1.360699 0.000000
v -0.010790 1.349099 0.000000
v 0.034920 1.376319 0.000000
v -0.005149 1.369534 0.000000
v 0.015407 1.413124 0.000000
v -0.014728 1.387350 0.000000
v 0.015688 1.496183 0.000000
v -0.003117 1.423092 0.000000
v 0.013783 1.638532 0.000000
v -0.008861 1.699784 0.000000
v -0.135767 0.616141 0.000000
v 0.134653 0.608234 0.000000
v -0.007712 0.805982 0.000000
v 0.008664 0.810664 0.000000
v 0.128300 0.621954 0.000000
v -0.007990 0.842568 0.000000
v 0.002686 0.830308 0.000000
v -0.129448 0.629253 0.000000
v 0.134653 0.665328 0.000000
v -0.012866 0.864810 0.000000
v 0.011604 0.854062 0.000000
v -0.132045 0.649878 0.000000
v 0.134653 0.730312 0.000000
v -0.007521 0.891152 0.000000
v 0.006563 0.899093 0.000000
v -0.132496 0.717536 0.000000
v 0.086957 1.266608 0.000000
v 0.096807 1.247148 0.000000
v 0.094042 1.248828 0.000000
v 0.030364 1.260821 0.000000
v 0.077708 1.271497 0.000000
v 0.072181 1.279919 0.000000
v 0.076299 1.288770 0.000000
v 0.090838 1.242607 0.000000
v -0.076722 1.236734 0.000000
v -0.056103 1.267426 0.000000
v -0.072481 1.264782 0.000000
v -0.062737 1.256314 0.000000
v -0.079521 1.250762 0.000000
v -0.076834 1.246413 0.000000
v -0.084125 1.245137 0.000000
v -0.068263 1.273183 0.000000
v -0.116510 0.305604 0.011537
v 0.117400 0.305604 0.011537
v -0.124596 1.208910 0.011538
v 0.123465 1.208910 0.011538
v -0.126517 0.149324 0.011537
v 0.127407 0.149324 0.011537
v -0.128321 1.236371 0.011538
v 0.131965 1.228387 0.011538
v -0.122299 1.250344 0.011538
v 0.120927 1.246252 0.011538
v -0.129158 1.265820 0.011538
v 0.129711 1.257635 0.011538
v -0.093917 1.329219 0.011538
v 0.093267 1.321516 0.011538
v -0.100387 1.346692 0.011538
v 0.099737 1.338988 0.011538
v -0.083363 1.374148 0.011538
v 0.085362 1.374148 0.011538
v -0.064656 1.440044 0.011538
v 0.063876 1.440044 0.011538
v -0.038691 1.546875 0.011538
v 0.050153 1.547578 0.011538
v -0.018715 1.703295 0.011538
v 0.020787 1.640134 0.011538
v -0.012882 0.305604 0.011537
v 0.012882 0.305604 0.011537
v 0.018947 1.208910 0.011538
v -0.020968 1.208910 0.011538
v -0.013840 0.149324 0.011537
v 0.013840 0.149324 0.011537
v 0.017060 1.233763 0.011538
v -0.019282 1.226942 0.011538
v 0.017724 1.247536 0.011538
v -0.017539 1.253755 0.011538
v 0.022593 1.276252 0.011538
v -0.025217 1.271036 0.011538
v 0.021830 1.333032 0.011538
v -0.013419 1.332831 0.011538
v 0.018637 1.360134 0.011538
v -0.014841 1.349099 0.011538
v 0.038876 1.375753 0.011538
v -0.009199 1.369534 0.011538
v 0.019363 1.412559 0.011538
v -0.018778 1.387350 0.011538
v 0.019644 1.495618 0.011538
v -0.007167 1.423092 0.011538
v 0.017739 1.637967 0.011538
v -0.012911 1.699784 0.011538
v -0.117625 0.616141 0.011538
v 0.117400 0.608234 0.011538
v -0.012882 0.805982 0.011538
v 0.015056 0.810664 0.011538
v 0.111047 0.621954 0.011538
v -0.013356 0.842568 0.011538
v 0.004857 0.830308 0.011538
v -0.111305 0.629253 0.011538
v 0.117400 0.665328 0.011538
v -0.021674 0.864810 0.011538
v 0.020071 0.854062 0.011538
v -0.113902 0.649878 0.011538
v 0.117400 0.730312 0.011538
v -0.012555 0.891152 0.011538
v 0.011471 0.899093 0.011538
v -0.114353 0.717536 0.011538
v 0.090293 1.266118 0.011538
v 0.100143 1.246657 0.011538
v 0.089823 1.246767 0.011538
v 0.030757 1.256405 0.011538
v 0.073946 1.273542 0.011538
v 0.068095 1.279672 0.011538
v 0.076593 1.293186 0.011538
v 0.087600 1.236622 0.011538
v -0.074136 1.231009 0.011538
v -0.052356 1.269876 0.011538
v -0.074467 1.268932 0.011538
v -0.063228 1.252487 0.011538
v -0.083000 1.251938 0.011538
v -0.074509 1.245120 0.011538
v -0.088581 1.245120 0.011538
v -0.069355 1.279114 0.011538
v -0.116510 0.305604 -0.011538
v 0.117400 0.305604 -0.011538
v -0.124596 1.208910 -0.011537
v 0.123465 1.208910 -0.011537
v -0.126517 0.149324 -0.011538
v 0.127407 0.149324 -0.011538
v -0.128321 1.236371 -0.011537
v 0.131965 1.228387 -0.011537
v -0.122299 1.250344 -0.011537
v 0.120927 1.246252 -0.011537
v -0.129158 1.265820 -0.011537
v 0.129711 1.257635 -0.011537
v -0.093917 1.329219 -0.011537
v 0.093267 1.321516 -0.011537
v -0.100387 1.346692 -0.011537
v 0.099737 1.338988 -0.011537
v -0.083363 1.374148 -0.011537
v 0.085362 1.374148 -0.011537
v -0.064656 1.440044 -0.011537
v 0.063876 1.440044 -0.011537
v -0.038691 1.546875 -0.011537
v 0.050153 1.547578 -0.011537
v -0.018715 1.703295 -0.011537
v 0.020787 1.640134 -0.011537
v -0.012882 0.305604 -0.011538
v 0.012882 0.305604 -0.011538
v 0.018947 1.208910 -0.011537
v -0.020968 1.208910 -0.011537
v -0.013840 0.149324 -0.011538
v 0.013840 0.149324 -0.011538
v 0.017060 1.233763 -0.011537
v -0.019282 1.226942 -0.011537
v 0.017724 1.247536 -0.011537
v -0.017539 1.253755 -0.011537
v 0.022593 1.276252 -0.011537
v -0.025217 1.271036 -0.011537
v 0.021830 1.333032 -0.011537
v -0.013419 1.332831 -0.011537
v 0.018637 1.360134 -0.011537
v -0.014841 1.349099 -0.011537
v 0.038876 1.375753 -0.011537
v -0.009199 1.369534 -0.011537
v 0.019363 1.412559 -0.011537
v -0.018778 1.387350 -0.011537
v 0.019644 1.495618 -0.011537
v -0.007167 1.423092 -0.011537
v 0.017739 1.637967 -0.011537
v -0.012911 1.699784 -0.011537
v -0.117625 0.616141 -0.011537
v 0.117400 0.608234 -0.011537
v -0.012882 0.805982 -0.011537
v 0.015056 0.810664 -0.011537
v 0.111047 0.621954 -0.011537
v -0.013356 0.842568 -0.011537
v 0.004857 0.830308 -0.011537
v -0.111305 0.629253 -0.011537
v 0.117400 0.665328 -0.011537
v -0.021674 0.864810 -0.011537
v 0.020071 0.854062 -0.011537
v -0.113902 0.649878 -0.011537
v 0.117400 0.730312 -0.011537
v -0.012555 0.891152 -0.011537
v 0.011471 0.899093 -0.011537
v -0.114353 0.717536 -0.011537
v 0.090293 1.266118 -0.011537
v 0.100143 1.246657 -0.011537
v 0.089823 1.246767 -0.011537
v 0.030757 1.256405 -0.011537
v 0.073946 1.273542 -0.011537
v 0.068095 1.279672 -0.011537
v 0.076593 1.293186 -0.011537
v 0.087600 1.236622 -0.011537
v -0.074136 1.231009 -0.011537
v -0.052356 1.269876 -0.011537
v -0.074467 1.268932 -0.011537
v -0.063228 1.252487 -0.011537
v -0.083000 1.251938 -0.011537
v -0.074509 1.245120 -0.011537
v -0.088581 1.245120 -0.011537
v -0.069355 1.279114 -0.011537
v -0.037560 -0.105623 0.000000
v -0.037490 -0.100119 0.000000
v -0.022172 -0.100119 0.030999
v 0.037560 -0.105623 0.000000
v 0.037490 -0.100119 0.000000
v 0.022172 -0.100119 0.030999
v -0.023449 -0.105623 0.029229
v -0.022172 -0.100119 -0.030999
v 0.022172 -0.100119 -0.030999
v -0.023449 -0.105623 -0.029229
v 0.023449 -0.105623 0.029229
v 0.023449 -0.105623 -0.029229
v -0.019681 0.090823 0.018934
v -0.032046 0.090823 0.000000
v 0.019681 0.090823 -0.018934
v 0.019681 0.090823 0.018934
v -0.019681 0.090823 -0.018934
v 0.032046 0.090823 0.000000
vn 0.8172 -0.0410 0.5750
vn -0.4436 0.7878 0.4273
vn 0.4436 -0.7878 0.4273
vn -0.2074 -0.8857 0.4153
vn -0.2329 -0.8786 0.4169
vn -0.4278 -0.8009 0.4190
vn 0.2074 0.8857 0.4153
vn 0.2329 0.8786 0.4169
vn 0.4278 0.8009 0.4190
vn -0.7915 -0.0000 0.6112
vn -0.0000 0.9198 0.3923
vn -0.0000 -0.9198 0.3923
vn -0.8068 -0.5321 0.2568
vn -0.8348 -0.5505 -0.0000
vn -0.9423 -0.0000 0.3348
vn -0.7505 0.5591 0.3524
vn -0.8159 0.4448 0.3695
vn -0.7695 -0.4692 0.4333
vn -0.2074 0.8857 0.4153
vn -0.2329 0.8786 0.4169
vn -0.0000 -0.0000 1.0000
vn 0.2074 -0.8857 0.4153
vn 0.2329 -0.8786 0.4169
vn 0.4278 -0.8009 0.4190
vn 0.8159 0.4448 0.3695
vn -0.0000 0.0107 0.9999
vn -0.0000 0.0248 0.9997
vn -0.8172 -0.0410 0.5750
vn -0.4278 0.8009 0.4190
vn 0.7915 -0.0000 0.6112
vn -0.4436 -0.7878 0.4273
vn 0.4436 0.7878 0.4273
vn 0.9423 -0.0000 0.3348
vn 0.8348 -0.5505 -0.0000
vn 0.8068 -0.5321 0.2568
vn 0.7695 -0.4692 0.4333
vn 0.7505 0.5591 0.3524
vn -0.0000 -0.7645 0.6446
vn -0.5411 -0.5411 0.6437
vn -0.2498 -0.0000 0.9683
vn -0.3398 -0.0000 0.9405
vn 0.2498 -0.0000 0.9683
vn 0.3398 -0.0000 0.9405
vn -0.0000 -0.2423 0.9702
vn -0.0000 -0.3259 0.9454
vn -0.0000 0.2423 0.9702
vn -0.0000 0.3259 0.9454
vn -0.2839 -0.0000 0.9589
vn -0.0000 0.2691 0.9631
vn 0.2839 -0.0000 0.9589
vn -0.0000 -0.2691 0.9631
vn 0.3254 -0.0000 0.9456
vn 0.1104 -0.1124 0.9875
vn 0.1104 0.1124 0.9875
vn -0.0000 0.3254 0.9456
vn -0.1104 0.1124 0.9875
vn -0.3254 -0.0000 0.9456
vn -0.1104 -0.1124 0.9875
vn -0.0000 -0.3254 0.9456
vn 0.5411 0.5411 0.6437
vn -0.5411 0.5411 0.6437
vn 0.5411 -0.5411 0.6437
vn -0.7207 -0.6933 -0.0000
vn -0.9138 0.4062 -0.0000
vn 0.9138 -0.4062 -0.0000
vn -0.4505 0.8928 -0.0000
vn 1.0000 -0.0000 -0.0000
vn 0.4505 -0.8928 -0.0000
vn -1.0000 -0.0000 -0.0000
vn -0.0000 1.0000 -0.0000
vn -0.0000 -1.0000 -0.0000
vn -0.4505 -0.8928 -0.0000
vn -0.6721 -0.7405 -0.0000
vn 0.4505 0.8928 -0.0000
vn -0.6721 0.7405 -0.0000
vn -0.7207 0.6933 -0.0000
vn -0.9138 -0.4062 -0.0000
vn 0.7207 0.6933 -0.0000
vn 0.9138 0.4062 -0.0000
vn 0.6721 0.7405 -0.0000
vn 0.6721 -0.7405 -0.0000
vn 0.7207 -0.6933 -0.0000
vn 0.8172 -0.0410 -0.5750
vn -0.4436 0.7878 -0.4273
vn 0.4436 -0.7878 -0.4273
vn -0.2074 -0.8857 -0.4153
vn -0.4278 -0.8009 -0.4190
vn -0.2329 -0.8786 -0.4169
vn 0.2074 0.8857 -0.4153
vn 0.4278 0.8009 -0.4190
vn 0.2329 0.8786 -0.4169
vn -0.7915 -0.0000 -0.6112
vn -0.0000 0.9198 -0.3923
vn -0.0000 -0.9198 -0.3923
vn -0.8068 -0.5321 -0.2568
vn -0.9423 -0.0000 -0.3348
vn -0.7505 0.5591 -0.3524
vn -0.8159 0.4448 -0.3695
vn -0.7695 -0.4692 -0.4333
vn -0.2329 0.8786 -0.4169
vn -0.2074 0.8857 -0.4153
vn -0.0000 -0.0000 -1.0000
vn 0.2329 -0.8786 -0.4169
vn 0.2074 -0.8857 -0.4153
vn 0.4278 -0.8009 -0.4190
vn 0.8159 0.4448 -0.3695
vn -0.0000 0.0107 -0.9999
vn -0.0000 0.0248 -0.9997
vn -0.8172 -0.0410 -0.5750
vn -0.4278 0.8009 -0.4190
vn 0.7915 -0.0000 -0.6112
vn -0.4436 -0.7878 -0.4273
vn 0.4436 0.7878 -0.4273
vn 0.9423 -0.0000 -0.3348
vn 0.8068 -0.5321 -0.2568
vn 0.7695 -0.4692 -0.4333
vn 0.7505 0.5591 -0.3524
vn -0.0000 -0.7645 -0.6446
vn -0.5411 -0.5411 -0.6437
vn -0.2498 -0.0000 -0.9683
vn -0.3398 -0.0000 -0.9405
vn 0.2498 -0.0000 -0.9683
vn 0.3398 -0.0000 -0.9405
vn -0.0000 -0.2423 -0.9702
vn -0.0000 -0.3259 -0.9454
vn -0.0000 0.2423 -0.9702
vn -0.0000 0.3259 -0.9454
vn -0.2839 -0.0000 -0.9589
vn -0.0000 0.2691 -0.9631
vn 0.2839 -0.0000 -0.9589
vn -0.0000 -0.2691 -0.9631
vn 0.3254 -0.0000 -0.9456
vn 0.1104 0.1124 -0.9875
vn 0.1104 -0.1124 -0.9875
vn -0.0000 0.3254 -0.9456
vn -0.1104 0.1124 -0.9875
vn -0.3254 -0.0000 -0.9456
vn -0.1104 -0.1124 -0.9875
vn -0.0000 -0.3254 -0.9456
vn 0.5411 0.5411 -0.6437
vn -0.5411 0.5411 -0.6437
vn 0.5411 -0.5411 -0.6437
vn -0.0000 -0.5202 0.8541
vn 0.6558 -0.6356 0.4074
vn 0.5980 -0.7016 0.3874
vn 0.4676 -0.8168 0.3379
vn -0.0000 -0.5202 -0.8541
vn -0.5980 -0.7016 0.3874
vn -0.6558 -0.6356 0.4074
vn -0.4676 -0.8168 0.3379
vn -0.6558 -0.6356 -0.4074
vn -0.5980 -0.7016 -0.3874
vn -0.4676 -0.8168 -0.3379
vn 0.5980 -0.7016 -0.3874
vn 0.6558 -0.6356 -0.4074
vn 0.4676 -0.8168 -0.3379
vn -0.2273 -0.0000 0.9738
vn 0.2273 -0.0000 0.9738
vn 0.4428 -0.0000 0.8966
vn -0.2273 -0.0000 -0.9738
vn -0.4428 -0.0000 -0.8966
vn 0.4428 -0.0000 -0.8966
vn 0.2273 -0.0000 -0.9738
vn -0.4428 -0.0000 0.8966
vn 0.8965 -0.0000 -0.4430
vn 0.8639 -0.2155 -0.4552
vn 0.8535 -0.2539 -0.4551
vn -0.8965 -0.0000 -0.4430
vn -0.8535 -0.2539 -0.4551
vn -0.8639 -0.2155 -0.4552
vn -0.8965 -0.0000 0.4430
vn -0.8639 -0.2155 0.4552
vn -0.8535 -0.2539 0.4551
vn -0.0000 0.0346 -0.9994
vn 0.8965 -0.0000 0.4430
vn 0.8535 -0.2539 0.4551
vn 0.8639 -0.2155 0.4552
vn -0.0000 0.0346 0.9994
vn -0.1436 0.9566 -0.2534
vn 0.1436 0.9566 -0.2534
vn 0.1566 0.9570 -0.2443
vn -0.1566 0.9570 -0.2443
vn 0.1436 0.9566 0.2534
vn -0.1436 0.9566 0.2534
vn -0.1566 0.9570 0.2443
vn 0.1566 0.9570 0.2443
vn -0.2942 0.9557 -0.0000
vn 0.3930 -0.9195 -0.0000
vn 0.1958 -0.9333 -0.3009
vn 0.1814 -0.9343 -0.3069
vn 0.1958 -0.9333 0.3009
vn 0.1814 -0.9343 0.3069
vn -0.4281 -0.8325 0.3517
vn -0.2551 -0.9669 -0.0000
vn -0.1678 -0.9449 0.2812
vn -0.8746 -0.3601 0.3245
vn -0.8985 -0.1899 0.3958
vn -0.8993 -0.1678 0.4039
vn -0.9276 -0.2116 0.3077
vn -0.8508 -0.4511 0.2697
vn -0.9202 -0.2472 0.3034
vn -0.5366 -0.0036 0.8438
vn -0.5355 0.0645 0.8421
vn -0.5346 0.0867 0.8406
vn -0.5366 -0.0023 0.8438
vn -0.5363 -0.0343 0.8433
vn -0.5337 0.1046 0.8392
vn -0.5350 0.0764 0.8414
vn -0.5363 -0.0366 0.8433
vn 0.9398 -0.0893 0.3299
vn 0.9131 -0.2521 0.3206
vn 0.9403 -0.0828 0.3301
vn 0.5257 0.3248 0.7862
vn -0.6110 0.7917 -0.0000
vn -0.5930 0.7683 0.2410
vn 0.0352 -0.9994 -0.0000
vn 0.0344 -0.9763 0.2135
vn 0.9337 -0.0400 0.3557
vn 0.9335 -0.0424 0.3561
vn -0.5365 0.0199 0.8437
vn -0.5363 0.0332 0.8434
vn -0.9417 -0.1109 0.3175
vn -0.9416 -0.0616 0.3310
vn -0.9415 -0.0573 0.3322
vn 0.5109 -0.3943 0.7639
vn 0.5533 0.0962 0.8274
vn 0.5555 -0.0390 0.8306
vn 0.5554 -0.0421 0.8305
vn 0.5545 0.0704 0.8292
vn 0.9120 -0.1637 0.3760
vn 0.8770 0.1247 0.4641
vn 0.8548 0.0088 0.5189
vn 0.8548 0.0069 0.5189
vn 0.8737 0.1339 0.4677
vn -0.9387 -0.0079 0.3447
vn 0.9492 -0.3148 -0.0000
vn 0.9313 -0.3088 0.1933
vn -0.5358 0.0549 0.8426
vn -0.5363 0.0341 0.8433
vn -0.8246 0.4189 0.3802
vn 0.5299 0.3023 0.7924
vn 0.5549 0.0609 0.8297
vn 0.5555 0.0379 0.8307
vn -0.5366 -0.0074 0.8438
vn -0.6186 0.7857 -0.0000
vn -0.6038 0.7668 0.2178
vn 0.9292 -0.0606 0.3647
vn 0.9371 -0.0531 0.3450
vn 0.9289 -0.0608 0.3653
vn -0.5361 0.0444 0.8430
vn -0.5352 0.0735 0.8415
vn -0.9213 0.0352 0.3872
vn -0.9182 -0.0098 0.3959
vn -0.9182 -0.0100 0.3959
vn -0.8963 -0.4435 -0.0000
vn -0.8945 -0.4471 -0.0000
vn -0.8715 -0.4367 0.2230
vn -0.8760 -0.4334 0.2116
vn 0.5559 0.0079 0.8312
vn 0.5559 0.0118 0.8312
vn 0.9185 -0.0223 0.3949
vn 0.9184 -0.0218 0.3950
vn 0.5559 -0.0035 0.8313
vn -0.9130 -0.0171 0.4076
vn -0.9130 -0.0167 0.4076
vn 0.8710 -0.4913 -0.0000
vn 0.8485 -0.4786 0.2259
vn -0.5303 0.2597 0.8071
vn -0.5417 0.2266 0.8095
vn 0.8843 -0.1007 0.4560
vn 0.8819 -0.1083 0.4589
vn -0.8930 -0.0007 0.4501
vn -0.8969 -0.0044 0.4423
vn 0.5577 0.2143 0.8019
vn 0.5651 0.2107 0.7977
vn -0.8887 -0.0538 0.4554
vn -0.8578 -0.1299 0.4972
vn -0.8878 -0.0561 0.4568
vn 0.9067 -0.0044 0.4218
vn 0.9096 -0.0022 0.4154
vn 0.7878 0.6160 -0.0000
vn 0.7694 0.6016 0.2148
vn -0.5361 -0.0432 0.8430
vn -0.5362 -0.0406 0.8431
vn -0.6055 0.1745 0.7765
vn -0.6204 0.1756 0.7643
vn -0.5335 0.1081 0.8389
vn -0.5365 0.0165 0.8437
vn -0.5365 0.0159 0.8437
vn -0.5314 0.1387 0.8357
vn -0.0400 -0.9992 -0.0000
vn -0.0390 -0.9757 0.2156
vn 0.6471 0.1655 0.7443
vn 0.6647 0.1548 0.7309
vn 0.5509 -0.1338 0.8238
vn 0.5526 -0.1079 0.8264
vn 0.5558 0.0181 0.8311
vn 0.5525 0.1095 0.8263
vn 0.5505 0.1384 0.8233
vn 0.5558 0.0175 0.8311
vn -0.5623 0.7781 0.2800
vn -0.7932 0.1670 0.5856
vn -0.8148 0.1641 0.5560
vn 0.9111 0.0047 0.4121
vn -0.3510 0.9364 -0.0000
vn -0.3498 0.9332 0.0828
vn 0.8275 0.2141 0.5191
vn 0.8431 0.2325 0.4849
vn -0.5625 0.8268 -0.0000
vn -0.5485 0.8061 0.2224
vn 0.1660 0.9419 0.2919
vn 0.4092 0.9125 -0.0000
vn 0.4081 0.9101 0.0716
vn 0.5555 0.0356 0.8307
vn -0.9998 -0.0204 -0.0000
vn -0.9791 -0.0200 0.2023
vn -0.8922 -0.4516 -0.0000
vn -0.8678 -0.4392 0.2323
vn 0.9351 -0.1335 0.3283
vn 0.9434 0.0196 0.3312
vn 0.9338 -0.1431 0.3278
vn -0.9101 0.1449 0.3882
vn -0.5363 0.0343 0.8433
vn 0.7177 0.6964 -0.0000
vn 0.6992 0.6785 0.2255
vn -0.9460 -0.0127 0.3238
vn -0.9460 -0.0050 0.3242
vn -0.9460 -0.0045 0.3242
vn 0.9005 0.3221 0.2921
vn 0.7416 -0.6070 0.2855
vn 0.8041 -0.5160 0.2951
vn 0.7988 -0.5246 0.2944
vn 0.9021 -0.2931 0.3167
vn 0.8523 -0.4280 0.3006
vn -0.0253 0.9504 0.3100
vn 0.5402 -0.2358 0.8078
vn 0.8415 0.4524 0.2954
vn -0.4281 -0.8325 -0.3517
vn -0.1678 -0.9449 -0.2812
vn -0.8746 -0.3601 -0.3245
vn -0.8993 -0.1678 -0.4039
vn -0.8985 -0.1899 -0.3958
vn -0.9276 -0.2116 -0.3077
vn -0.9202 -0.2472 -0.3034
vn -0.8508 -0.4510 -0.2697
vn -0.5366 -0.0036 -0.8438
vn -0.5366 -0.0023 -0.8438
vn -0.5346 0.0867 -0.8406
vn -0.5355 0.0645 -0.8421
vn -0.5363 -0.0343 -0.8433
vn -0.5363 -0.0366 -0.8433
vn -0.5350 0.0764 -0.8414
vn -0.5337 0.1046 -0.8392
vn 0.9398 -0.0893 -0.3299
vn 0.9403 -0.0828 -0.3301
vn 0.9131 -0.2521 -0.3206
vn 0.5257 0.3248 -0.7862
vn -0.5930 0.7683 -0.2410
vn 0.0344 -0.9763 -0.2135
vn 0.9337 -0.0400 -0.3557
vn 0.9335 -0.0424 -0.3561
vn -0.5365 0.0199 -0.8437
vn -0.5363 0.0332 -0.8434
vn -0.9417 -0.1109 -0.3175
vn -0.9415 -0.0573 -0.3322
vn -0.9416 -0.0616 -0.3310
vn 0.5109 -0.3943 -0.7639
vn 0.5533 0.0962 -0.8274
vn 0.5545 0.0704 -0.8292
vn 0.5554 -0.0421 -0.8305
vn 0.5555 -0.0390 -0.8306
vn 0.9120 -0.1637 -0.3760
vn 0.8770 0.1247 -0.4641
vn 0.8737 0.1339 -0.4677
vn 0.8548 0.0069 -0.5189
vn 0.8548 0.0088 -0.5189
vn -0.9387 -0.0079 -0.3447
vn 0.9313 -0.3088 -0.1933
vn -0.5358 0.0549 -0.8426
vn -0.5363 0.0341 -0.8433
vn -0.8246 0.4189 -0.3802
vn 0.5299 0.3023 -0.7924
vn 0.5555 0.0379 -0.8307
vn 0.5549 0.0609 -0.8297
vn -0.5366 -0.0074 -0.8438
vn -0.6038 0.7668 -0.2178
vn 0.9292 -0.0606 -0.3647
vn 0.9289 -0.0608 -0.3653
vn 0.9371 -0.0531 -0.3450
vn -0.5361 0.0444 -0.8430
vn -0.5352 0.0735 -0.8415
vn -0.9213 0.0352 -0.3872
vn -0.9182 -0.0100 -0.3959
vn -0.9183 -0.0098 -0.3959
vn -0.8760 -0.4334 -0.2116
vn -0.8715 -0.4367 -0.2230
vn 0.5559 0.0118 -0.8312
vn 0.5559 0.0079 -0.8312
vn 0.9185 -0.0223 -0.3949
vn 0.9184 -0.0218 -0.3950
vn 0.5559 -0.0035 -0.8313
vn -0.9130 -0.0167 -0.4076
vn -0.9130 -0.0171 -0.4076
vn 0.8485 -0.4786 -0.2259
vn -0.5303 0.2597 -0.8071
vn -0.5417 0.2266 -0.8095
vn 0.8819 -0.1083 -0.4589
vn 0.8843 -0.1007 -0.4560
vn -0.8930 -0.0007 -0.4501
vn -0.8969 -0.0044 -0.4423
vn 0.5651 0.2107 -0.7977
vn 0.5577 0.2143 -0.8019
vn -0.8887 -0.0538 -0.4554
vn -0.8878 -0.0561 -0.4568
vn -0.8578 -0.1299 -0.4972
vn 0.9067 -0.0044 -0.4218
vn 0.9096 -0.0022 -0.4154
vn 0.7694 0.6016 -0.2148
vn -0.5361 -0.0432 -0.8430
vn -0.5362 -0.0406 -0.8431
vn -0.6055 0.1745 -0.7765
vn -0.6204 0.1756 -0.7643
vn -0.5335 0.1081 -0.8389
vn -0.5314 0.1387 -0.8357
vn -0.5365 0.0159 -0.8437
vn -0.5365 0.0165 -0.8437
vn -0.0390 -0.9757 -0.2156
vn 0.6647 0.1548 -0.7309
vn 0.6471 0.1655 -0.7443
vn 0.5526 -0.1079 -0.8264
vn 0.5509 -0.1338 -0.8238
vn 0.5558 0.0181 -0.8311
vn 0.5558 0.0175 -0.8311
vn 0.5505 0.1384 -0.8233
vn 0.5525 0.1095 -0.8263
vn -0.5623 0.7781 -0.2800
vn -0.7932 0.1670 -0.5856
vn -0.8148 0.1641 -0.5560
vn 0.9111 0.0047 -0.4121
vn -0.3498 0.9332 -0.0828
vn 0.8431 0.2325 -0.4849
vn 0.8275 0.2141 -0.5191
vn -0.5485 0.8061 -0.2224
vn 0.1660 0.9419 -0.2919
vn 0.4081 0.9101 -0.0716
vn 0.5555 0.0356 -0.8307
vn -0.9791 -0.0200 -0.2023
vn -0.8678 -0.4392 -0.2323
vn 0.9351 -0.1335 -0.3283
vn 0.9338 -0.1431 -0.3278
vn 0.9434 0.0196 -0.3312
vn -0.9101 0.1449 -0.3882
vn -0.5363 0.0343 -0.8433
vn 0.6992 0.6785 -0.2255
vn -0.9460 -0.0127 -0.3238
vn -0.9460 -0.0045 -0.3242
vn -0.9460 -0.0050 -0.3242
vn 0.9005 0.3221 -0.2921
vn 0.7416 -0.6070 -0.2855
vn 0.7989 -0.5246 -0.2944
vn 0.8041 -0.5160 -0.2951
vn 0.9021 -0.2931 -0.3167
vn 0.8523 -0.4280 -0.3006
vn -0.0253 0.9504 -0.3100
vn 0.5402 -0.2358 -0.8078
vn 0.8415 0.4524 -0.2954
vn -0.8978 0.0393 -0.4387
vn -0.0000 -0.3062 -0.9520
vn 0.8978 0.0393 -0.4387
vn -0.8978 0.0393 0.4387
vn -0.0000 -0.3062 0.9520
vn 0.8978 0.0393 0.4387
vn -0.3930 -0.9195 -0.0000
vn -0.1958 -0.9333 0.3009
vn -0.1814 -0.9343 0.3069
vn 0.2942 0.9557 -0.0000
vn -0.1958 -0.9333 -0.3009
vn -0.1814 -0.9343 -0.3069
vn -0.0000 0.0613 -0.9981
vn -0.0000 0.0613 0.9981
vt 0.620240 0.356717
vt 0.620506 0.366457
vt 0.612568 0.368520
vt 0.612568 0.358894
vt 0.474026 0.599261
vt 0.481965 0.597766
vt 0.481965 0.633191
vt 0.474026 0.627423
vt 0.606673 0.051763
vt 0.614612 0.051763
vt 0.614612 0.083119
vt 0.606673 0.076989
vt 0.606673 0.041984
vt 0.614612 0.041984
vt 0.604629 0.260958
vt 0.607752 0.253019
vt 0.617054 0.253019
vt 0.612514 0.260958
vt 0.564603 0.561852
vt 0.565255 0.570875
vt 0.563392 0.570901
vt 0.563217 0.561871
vt 0.362595 0.572050
vt 0.370534 0.571022
vt 0.370534 0.611023
vt 0.362595 0.612051
vt 0.606673 0.000000
vt 0.614612 0.000000
vt 0.592349 0.428257
vt 0.600195 0.431564
vt 0.598461 0.448268
vt 0.590115 0.448535
vt 0.599592 0.497394
vt 0.591246 0.497660
vt 0.601601 0.507165
vt 0.592884 0.507558
vt 0.606673 0.093802
vt 0.615526 0.094408
vt 0.615579 0.114495
vt 0.607536 0.117013
vt 0.598084 0.542768
vt 0.590115 0.536177
vt 0.555278 0.612989
vt 0.547339 0.614017
vt 0.547339 0.574016
vt 0.555278 0.572988
vt 0.450835 0.089197
vt 0.463675 0.074315
vt 0.495453 0.101716
vt 0.482613 0.116598
vt 0.614866 0.203854
vt 0.606927 0.203854
vt 0.606927 0.161870
vt 0.614866 0.161870
vt 0.606927 0.152091
vt 0.614866 0.152091
vt 0.395964 0.015930
vt 0.383124 0.030812
vt 0.372812 0.027804
vt 0.391474 0.006175
vt 0.427742 0.043331
vt 0.414902 0.058214
vt 0.620506 0.394365
vt 0.612568 0.391242
vt 0.454687 0.034827
vt 0.468133 0.046421
vt 0.475537 0.038599
vt 0.461354 0.026369
vt 0.616710 0.083683
vt 0.608055 0.083119
vt 0.547339 0.563346
vt 0.555278 0.561852
vt 0.505766 0.104724
vt 0.487104 0.126354
vt 0.612568 0.423325
vt 0.620506 0.421179
vt 0.620506 0.422460
vt 0.612568 0.425047
vt 0.362595 0.001051
vt 0.363502 -0.000000
vt 0.606927 0.126866
vt 0.614866 0.120735
vt 0.612568 0.394365
vt 0.620506 0.398904
vt 0.515982 0.131477
vt 0.515075 0.132528
vt 0.612568 0.274902
vt 0.620506 0.273813
vt 0.620506 0.319242
vt 0.612568 0.320331
vt 0.428237 0.095348
vt 0.412134 0.081462
vt 0.612568 0.264082
vt 0.620506 0.260958
vt 0.396069 0.132633
vt 0.379965 0.118747
vt 0.612568 0.333263
vt 0.620506 0.331474
vt 0.620506 0.350456
vt 0.612568 0.356717
vt 0.394453 0.144968
vt 0.367996 0.122156
vt 0.589373 0.523838
vt 0.587220 0.523838
vt 0.587446 0.515899
vt 0.589147 0.515899
vt 0.363883 0.154963
vt 0.362595 0.153852
vt 0.499489 0.499745
vt 0.499489 0.503955
vt 0.497782 0.502531
vt 0.497782 0.500169
vt 0.495765 0.580606
vt 0.489856 0.575044
vt 0.490939 0.571490
vt 0.499264 0.579325
vt 0.477526 0.588153
vt 0.483436 0.593715
vt 0.482433 0.597219
vt 0.474108 0.589384
vt 0.489915 0.593518
vt 0.495962 0.587090
vt 0.499018 0.588127
vt 0.491190 0.596450
vt 0.483374 0.575243
vt 0.477328 0.581671
vt 0.474339 0.580591
vt 0.482167 0.572268
vt 0.498303 0.570884
vt 0.499441 0.571956
vt 0.474026 0.573471
vt 0.475110 0.572319
vt 0.475164 0.597766
vt 0.474026 0.596695
vt 0.499416 0.595195
vt 0.498332 0.596347
vt 0.483941 0.587237
vt 0.486883 0.592466
vt 0.478558 0.584630
vt 0.483772 0.581739
vt 0.486386 0.576308
vt 0.489268 0.581573
vt 0.494711 0.584143
vt 0.489437 0.587071
vt 0.485067 0.586020
vt 0.484973 0.582936
vt 0.488056 0.582843
vt 0.488151 0.585927
vt 0.497782 0.494655
vt 0.497782 0.489566
vt 0.499217 0.491141
vt 0.499217 0.493996
vt 0.499217 0.503955
vt 0.499217 0.508842
vt 0.497782 0.507215
vt 0.497782 0.504473
vt 0.617817 0.251118
vt 0.622612 0.252214
vt 0.621849 0.257620
vt 0.617054 0.256524
vt 0.494773 0.564076
vt 0.494773 0.568995
vt 0.491941 0.568964
vt 0.491941 0.564045
vt 0.403646 0.610447
vt 0.398692 0.609597
vt 0.397932 0.607237
vt 0.402886 0.608086
vt 0.592090 0.259603
vt 0.592090 0.254577
vt 0.595725 0.255932
vt 0.595725 0.260958
vt 0.586879 0.259978
vt 0.581949 0.260958
vt 0.581668 0.259544
vt 0.586597 0.258564
vt 0.597025 0.246628
vt 0.601867 0.247977
vt 0.601353 0.251245
vt 0.596511 0.249896
vt 0.499341 0.484625
vt 0.499341 0.489544
vt 0.497782 0.489566
vt 0.497782 0.484647
vt 0.577567 0.612844
vt 0.582510 0.611932
vt 0.582784 0.613416
vt 0.577841 0.614327
vt 0.432716 0.613807
vt 0.427874 0.615156
vt 0.428297 0.611626
vt 0.433139 0.610277
vt 0.367844 0.618714
vt 0.362935 0.619793
vt 0.362595 0.618247
vt 0.367504 0.617168
vt 0.604415 0.609872
vt 0.604415 0.604846
vt 0.608050 0.604464
vt 0.608050 0.609490
vt 0.427783 0.608357
vt 0.432625 0.607008
vt 0.432625 0.619476
vt 0.427783 0.620826
vt 0.485737 0.564045
vt 0.485737 0.569072
vt 0.482939 0.570427
vt 0.482939 0.565400
vt 0.373093 0.612051
vt 0.377980 0.613229
vt 0.377980 0.620099
vt 0.373093 0.618921
vt 0.402596 0.616355
vt 0.397642 0.615506
vt 0.398491 0.612812
vt 0.403445 0.613662
vt 0.582510 0.619818
vt 0.577567 0.620730
vt 0.601776 0.254775
vt 0.596934 0.253426
vt 0.497782 0.565425
vt 0.497782 0.570344
vt 0.397642 0.600467
vt 0.402596 0.601317
vt 0.581949 0.252707
vt 0.586879 0.251726
vt 0.601867 0.260445
vt 0.597025 0.259096
vt 0.488738 0.564391
vt 0.488738 0.569417
vt 0.486540 0.569072
vt 0.486540 0.564046
vt 0.491941 0.565538
vt 0.491941 0.570565
vt 0.362935 0.613130
vt 0.367844 0.612051
vt 0.617054 0.248038
vt 0.621849 0.249134
vt 0.617615 0.245080
vt 0.622410 0.246177
vt 0.604896 0.356717
vt 0.604629 0.366457
vt 0.489904 0.599261
vt 0.489904 0.627423
vt 0.622551 0.051763
vt 0.622551 0.076989
vt 0.622551 0.041984
vt 0.604629 0.245080
vt 0.612514 0.245080
vt 0.564603 0.577390
vt 0.563217 0.577409
vt 0.378473 0.572050
vt 0.378473 0.612051
vt 0.622551 0.000000
vt 0.607886 0.428116
vt 0.605653 0.448393
vt 0.606784 0.497519
vt 0.604450 0.232538
vt 0.604450 0.242212
vt 0.596511 0.246628
vt 0.596511 0.235226
vt 0.622119 0.095492
vt 0.622982 0.118703
vt 0.608421 0.507416
vt 0.605653 0.536036
vt 0.563217 0.574016
vt 0.563217 0.614017
vt 0.427742 0.244160
vt 0.395964 0.271561
vt 0.383124 0.256679
vt 0.414902 0.229278
vt 0.622805 0.161870
vt 0.622805 0.203854
vt 0.622805 0.152091
vt 0.482613 0.170893
vt 0.487104 0.161138
vt 0.505766 0.182767
vt 0.495453 0.185775
vt 0.450835 0.198295
vt 0.463675 0.213177
vt 0.604629 0.394365
vt 0.423890 0.189790
vt 0.410444 0.201384
vt 0.403040 0.193562
vt 0.417223 0.181332
vt 0.622982 0.084752
vt 0.563217 0.563346
vt 0.391474 0.281317
vt 0.372812 0.259687
vt 0.604629 0.422460
vt 0.604629 0.421179
vt 0.515075 0.154963
vt 0.515982 0.156014
vt 0.622805 0.126866
vt 0.604629 0.398904
vt 0.363502 0.287492
vt 0.362595 0.286440
vt 0.604629 0.319242
vt 0.604629 0.273813
vt 0.466443 0.236426
vt 0.450340 0.250311
vt 0.604629 0.260958
vt 0.498612 0.273710
vt 0.482508 0.287596
vt 0.604629 0.350456
vt 0.604629 0.331474
vt 0.510581 0.277119
vt 0.484124 0.299931
vt 0.589147 0.531777
vt 0.587446 0.531777
vt 0.515982 0.308816
vt 0.514694 0.309926
vt 0.458784 0.581573
vt 0.459995 0.582843
vt 0.459901 0.585927
vt 0.458615 0.587071
vt 0.452286 0.580606
vt 0.448788 0.579325
vt 0.457113 0.571490
vt 0.458196 0.575044
vt 0.470526 0.588153
vt 0.473944 0.589384
vt 0.465619 0.597219
vt 0.464616 0.593715
vt 0.458136 0.593518
vt 0.456862 0.596450
vt 0.449033 0.588127
vt 0.452090 0.587090
vt 0.464678 0.575243
vt 0.465884 0.572268
vt 0.473713 0.580591
vt 0.470724 0.581671
vt 0.448611 0.571956
vt 0.449749 0.570884
vt 0.472942 0.572319
vt 0.474026 0.573471
vt 0.474026 0.596695
vt 0.472888 0.597766
vt 0.449720 0.596347
vt 0.448636 0.595195
vt 0.464111 0.587237
vt 0.469494 0.584630
vt 0.461169 0.592465
vt 0.464280 0.581739
vt 0.461666 0.576308
vt 0.453341 0.584143
vt 0.462984 0.586020
vt 0.463079 0.582936
vt 0.499217 0.499745
vt 0.497782 0.499086
vt 0.497782 0.496230
vt 0.499217 0.494655
vt 0.497782 0.508842
vt 0.499217 0.509360
vt 0.499217 0.512103
vt 0.497782 0.513729
vt 0.577567 0.617912
vt 0.577049 0.623811
vt 0.572377 0.625351
vt 0.572895 0.619452
vt 0.388214 0.616536
vt 0.388115 0.619440
vt 0.383359 0.618184
vt 0.383458 0.615280
vt 0.565290 0.611712
vt 0.566049 0.609351
vt 0.571003 0.608502
vt 0.570244 0.610862
vt 0.394006 0.601822
vt 0.397642 0.600467
vt 0.397642 0.605493
vt 0.394006 0.606848
vt 0.586879 0.259978
vt 0.587160 0.258564
vt 0.592090 0.259544
vt 0.591808 0.260958
vt 0.422941 0.620826
vt 0.422427 0.617557
vt 0.427269 0.616208
vt 0.427783 0.619476
vt 0.499341 0.484603
vt 0.497782 0.484625
vt 0.497782 0.479706
vt 0.499341 0.479685
vt 0.588000 0.612844
vt 0.587726 0.614327
vt 0.583057 0.611932
vt 0.442783 0.614027
vt 0.443206 0.617557
vt 0.438365 0.616208
vt 0.437942 0.612678
vt 0.373093 0.613130
vt 0.372753 0.614676
vt 0.367844 0.613597
vt 0.368184 0.612051
vt 0.604415 0.599055
vt 0.608050 0.599438
vt 0.604415 0.604082
vt 0.442692 0.620826
vt 0.437850 0.619477
vt 0.442692 0.608357
vt 0.437850 0.607008
vt 0.590019 0.568233
vt 0.587220 0.566878
vt 0.587220 0.561852
vt 0.590019 0.563207
vt 0.383359 0.612143
vt 0.383359 0.619013
vt 0.378473 0.620191
vt 0.378473 0.613320
vt 0.566340 0.617621
vt 0.565490 0.614927
vt 0.570444 0.614077
vt 0.571294 0.616771
vt 0.588000 0.620730
vt 0.583057 0.619818
vt 0.422850 0.614027
vt 0.427692 0.612678
vt 0.388115 0.613398
vt 0.383359 0.612143
vt 0.566340 0.602582
vt 0.571294 0.601732
vt 0.586879 0.251726
vt 0.591808 0.252707
vt 0.422941 0.608357
vt 0.427783 0.607008
vt 0.390412 0.618316
vt 0.388214 0.618662
vt 0.388214 0.613636
vt 0.390412 0.613290
vt 0.393615 0.617169
vt 0.393615 0.612143
vt 0.373093 0.619793
vt 0.368184 0.618714
vt 0.577454 0.614966
vt 0.572783 0.616506
vt 0.577049 0.611932
vt 0.572377 0.613472
vt 0.581528 0.268335
vt 0.556222 0.268335
vt 0.547339 0.260958
vt 0.590115 0.260958
vt 0.371920 0.453134
vt 0.384099 0.461087
vt 0.384099 0.474752
vt 0.367451 0.461874
vt 0.581232 0.395806
vt 0.555926 0.395806
vt 0.547339 0.388429
vt 0.590115 0.388429
vt 0.384099 0.419860
vt 0.371920 0.427814
vt 0.367451 0.419074
vt 0.384099 0.406196
vt 0.396278 0.427814
vt 0.400747 0.419074
vt 0.396278 0.453134
vt 0.400747 0.461874
vt 0.439767 0.359719
vt 0.427107 0.314832
vt 0.427107 0.309926
vt 0.448611 0.351416
vt 0.439767 0.449812
vt 0.439767 0.418801
vt 0.448611 0.417075
vt 0.448611 0.451538
vt 0.371439 0.362188
vt 0.362595 0.422388
vt 0.362595 0.353473
vt 0.427107 0.409470
vt 0.414446 0.418801
vt 0.414446 0.359719
vt 0.384099 0.315075
vt 0.396759 0.362188
vt 0.384099 0.309926
vt 0.427107 0.459143
vt 0.414446 0.449812
vt 0.405603 0.417075
vt 0.405603 0.351416
vt 0.414446 0.508894
vt 0.405603 0.517197
vt 0.405603 0.451538
vt 0.371439 0.518760
vt 0.384099 0.565873
vt 0.384099 0.571022
vt 0.362595 0.527474
vt 0.405603 0.353473
vt 0.396759 0.518760
vt 0.362595 0.458559
vt 0.427107 0.553781
vt 0.439767 0.508894
vt 0.448611 0.517197
vt 0.482745 0.423058
vt 0.448611 0.423048
vt 0.448611 0.354172
vt 0.482745 0.354182
vt 0.547533 0.149283
vt 0.547533 0.113132
vt 0.581668 0.113122
vt 0.581668 0.149272
vt 0.482745 0.459209
vt 0.448611 0.459199
vt 0.482745 0.528085
vt 0.448611 0.528074
vt 0.482939 0.570884
vt 0.448805 0.570874
vt 0.547533 0.044256
vt 0.547339 0.000010
vt 0.581474 0.000000
vt 0.581668 0.044246
vt 0.547339 0.260958
vt 0.547533 0.218159
vt 0.581668 0.218148
vt 0.581474 0.260948
vt 0.482939 0.309937
vt 0.448805 0.309926
vt 0.427107 0.558687
vt 0.405603 0.422388
vt 0.405603 0.458559
vt 0.405603 0.527474
vt 0.594297 0.232538
vt 0.581668 0.230129
vt 0.581668 0.126103
vt 0.594297 0.128512
vt 0.606673 0.120735
vt 0.595599 0.120187
vt 0.595312 0.007669
vt 0.606386 0.008217
vt 0.581955 0.120454
vt 0.581668 0.007936
vt 0.577659 0.515899
vt 0.559603 0.515899
vt 0.559568 0.403138
vt 0.577625 0.403138
vt 0.606927 0.230129
vt 0.606927 0.126103
vt 0.577852 0.388429
vt 0.559795 0.388429
vt 0.559830 0.275668
vt 0.577886 0.275668
vt 0.579910 0.546655
vt 0.579910 0.529442
vt 0.587220 0.525287
vt 0.587220 0.552464
vt 0.554650 0.529442
vt 0.554650 0.546655
vt 0.547339 0.552464
vt 0.547339 0.525287
vt 0.567280 0.552601
vt 0.567280 0.561852
vt 0.424405 0.597855
vt 0.432077 0.592217
vt 0.443206 0.597931
vt 0.424405 0.607008
vt 0.416733 0.592217
vt 0.405603 0.597931
vt 0.267054 0.476676
vt 0.198495 0.584973
vt 0.195896 0.277114
vt 0.263089 0.277377
vt 0.000000 0.899002
vt 0.066621 0.899322
vt 0.072540 0.999876
vt 0.000102 0.999527
vt 0.190484 0.264564
vt 0.264369 0.261395
vt 0.219028 0.259379
vt 0.210992 0.252892
vt 0.261573 0.197532
vt 0.260928 0.234052
vt 0.226258 0.223024
vt 0.215615 0.204759
vt 0.211503 0.193504
vt 0.263699 0.180107
vt 0.220841 0.170925
vt 0.250730 0.170009
vt 0.234832 0.128593
vt 0.263374 0.146384
vt 0.243947 0.059460
vt 0.263419 0.092959
vt 0.263077 0.000000
vt 0.265030 0.001401
vt 0.020673 0.100674
vt -0.000000 0.180196
vt 0.004602 0.002240
vt 0.008345 -0.000000
vt 0.055461 0.240844
vt 0.042759 0.279562
vt 0.039506 0.272997
vt 0.037014 0.169469
vt 0.007347 0.203222
vt 0.028547 0.278887
vt 0.011104 0.278057
vt 0.003722 0.238273
vt 0.048824 0.211913
vt 0.001130 0.214651
vt 0.059678 0.229626
vt 0.004690 0.227813
vt 0.077908 0.281733
vt 0.231685 0.231738
vt 0.073448 0.291666
vt 0.048189 0.290519
vt 0.263980 0.252535
vt 0.051754 0.294922
vt 0.217377 0.240400
vt 0.074789 0.318325
vt 0.008168 0.318004
vt 0.007143 0.306401
vt 0.042421 0.303954
vt 0.077274 0.300673
vt 0.035479 0.290105
vt 0.197342 0.858154
vt 0.264535 0.858417
vt 0.263495 0.958938
vt 0.190484 0.958652
vt 0.227906 0.235666
vt 0.066588 0.634354
vt 0.001715 0.522366
vt 0.217627 0.252848
vt 0.197629 0.253101
vt 0.001645 0.577150
vt 0.068358 0.699583
vt 0.198164 0.663496
vt 0.264509 0.533547
vt 0.255625 0.246797
vt 0.002070 0.553619
vt 0.064338 0.691130
vt 0.202285 0.654687
vt 0.271119 0.520937
vt 0.192012 0.245757
vt 0.007491 0.539338
vt 0.066076 0.677871
vt 0.198319 0.626772
vt 0.261402 0.505619
vt 0.006111 0.289149
vt 0.042708 0.294879
vt 0.466604 0.598468
vt 0.466604 0.606290
vt 0.459183 0.608701
vt 0.459183 0.597766
vt 0.525522 0.267380
vt 0.524706 0.280236
vt 0.516596 0.280386
vt 0.517972 0.267356
vt 0.507743 0.454655
vt 0.505561 0.479129
vt 0.497782 0.479685
vt 0.499964 0.455210
vt 0.085361 0.291790
vt 0.089187 0.300797
vt 0.077989 0.677996
vt 0.076251 0.691254
vt 0.490360 0.518548
vt 0.490360 0.507823
vt 0.497782 0.506817
vt 0.497782 0.517543
vt 0.615843 0.516054
vt 0.615843 0.603784
vt 0.608421 0.600204
vt 0.608421 0.527724
vt 0.179642 0.264589
vt 0.186787 0.253125
vt 0.589089 0.234852
vt 0.589089 0.250308
vt 0.581668 0.247993
vt 0.581668 0.232538
vt 0.466604 0.629377
vt 0.459183 0.626158
vt 0.490360 0.528555
vt 0.497782 0.527549
vt 0.089821 0.281857
vt 0.598150 0.542768
vt 0.597897 0.560300
vt 0.590115 0.560801
vt 0.590368 0.543270
vt 0.181170 0.245782
vt 0.191443 0.654712
vt 0.187476 0.626797
vt 0.490360 0.564046
vt 0.497782 0.561289
vt 0.539918 0.247586
vt 0.539918 0.233177
vt 0.547339 0.230990
vt 0.547339 0.246254
vt 0.598244 0.599055
vt 0.590368 0.597276
vt 0.414178 0.614430
vt 0.417074 0.614430
vt 0.416899 0.621851
vt 0.411431 0.621851
vt 0.067374 0.240969
vt 0.524367 0.252502
vt 0.515982 0.252738
vt 0.204773 0.204784
vt 0.078501 0.634478
vt 0.497603 0.605188
vt 0.493058 0.605188
vt 0.489904 0.597766
vt 0.499552 0.597766
vt 0.539918 0.017806
vt 0.539918 -0.000000
vt 0.547339 0.001218
vt 0.547339 0.016696
vt 0.071591 0.229750
vt 0.524678 0.000000
vt 0.524714 0.008824
vt 0.516827 0.008904
vt 0.516755 0.000092
vt 0.452270 0.601201
vt 0.452342 0.615936
vt 0.444712 0.617063
vt 0.444712 0.599028
vt 0.200661 0.193529
vt 0.539918 0.028261
vt 0.547339 0.026977
vt 0.187653 0.584997
vt 0.524538 0.024821
vt 0.516547 0.024934
vt 0.614791 0.611206
vt 0.619021 0.611206
vt 0.621568 0.618627
vt 0.615659 0.618627
vt 0.060737 0.212037
vt 0.539918 0.218873
vt 0.547339 0.217623
vt 0.524283 0.604353
vt 0.524025 0.704684
vt 0.515982 0.704813
vt 0.516292 0.604466
vt 0.209998 0.170949
vt 0.525089 0.223391
vt 0.517176 0.223479
vt 0.539918 0.658886
vt 0.539918 0.566288
vt 0.547339 0.565005
vt 0.547339 0.657504
vt 0.608421 0.611206
vt 0.610569 0.618627
vt 0.086702 0.318449
vt 0.047119 0.169585
vt 0.080271 0.699707
vt 0.078533 0.899447
vt 0.614349 0.203854
vt 0.614349 0.242200
vt 0.606927 0.239780
vt 0.606927 0.206747
vt 0.226024 0.128625
vt 0.185054 0.277138
vt 0.186500 0.858178
vt 0.187321 0.663521
vt 0.579799 0.598534
vt 0.579799 0.611932
vt 0.572377 0.608877
vt 0.572377 0.599156
vt 0.598687 0.360479
vt 0.601067 0.427827
vt 0.591762 0.428116
vt 0.590115 0.360560
vt 0.539918 0.269365
vt 0.547339 0.268081
vt 0.433245 0.614430
vt 0.437850 0.614430
vt 0.435536 0.621851
vt 0.433245 0.621851
vt 0.507068 0.612614
vt 0.507068 0.543757
vt 0.514490 0.541898
vt 0.514490 0.609116
vt 0.615843 0.428116
vt 0.615843 0.516054
vt 0.608421 0.504956
vt 0.608421 0.431904
vt 0.385895 0.601569
vt 0.385895 0.612143
vt 0.378473 0.610971
vt 0.378473 0.602618
vt 0.579799 0.561852
vt 0.572377 0.564840
vt 0.422427 0.614430
vt 0.417074 0.614430
vt 0.417074 0.607008
vt 0.419945 0.607008
vt 0.179642 0.958676
vt 0.403646 0.593423
vt 0.397429 0.593494
vt 0.393642 0.585941
vt 0.402715 0.585865
vt 0.452342 0.628903
vt 0.444712 0.630029
vt 0.490360 0.476547
vt 0.490360 0.310932
vt 0.497782 0.309926
vt 0.497782 0.475541
vt 0.597372 0.261253
vt 0.590115 0.260958
vt 0.084453 1.000000
vt 0.397682 0.578443
vt 0.404507 0.578443
vt 0.405603 0.585865
vt 0.393642 0.585865
vt 0.505561 0.309926
vt 0.506823 0.401364
vt 0.499044 0.401919
vt 0.497782 0.310481
vt 0.507068 0.479685
vt 0.514490 0.479685
vt 0.408565 0.614430
vt 0.405603 0.614430
vt 0.407841 0.607008
vt 0.411431 0.607008
vt 0.490360 0.494873
vt 0.497782 0.493867
vt 0.604415 0.606477
vt 0.597843 0.606477
vt 0.594888 0.599055
vt 0.602853 0.599055
vt 0.385895 0.571022
vt 0.378473 0.574369
vt 0.593906 0.606477
vt 0.590115 0.599055
vt 0.275184 0.476676
vt 0.279148 0.277377
vt 0.346341 0.277114
vt 0.343742 0.584973
vt 0.179642 0.899002
vt 0.179540 0.999527
vt 0.107102 0.999876
vt 0.113022 0.899322
vt 0.277868 0.261395
vt 0.351753 0.264564
vt 0.323209 0.259379
vt 0.331246 0.252892
vt 0.280665 0.197532
vt 0.315980 0.223023
vt 0.281310 0.234052
vt 0.278539 0.180107
vt 0.330734 0.193504
vt 0.326622 0.204759
vt 0.291508 0.170009
vt 0.321397 0.170924
vt 0.278863 0.146384
vt 0.307405 0.128593
vt 0.278818 0.092959
vt 0.298290 0.059459
vt 0.277207 0.001401
vt 0.279161 -0.000000
vt 0.158969 0.100674
vt 0.171297 -0.000000
vt 0.175040 0.002240
vt 0.179642 0.180196
vt 0.124181 0.240844
vt 0.140136 0.272997
vt 0.136883 0.279562
vt 0.142628 0.169469
vt 0.172295 0.203222
vt 0.151095 0.278887
vt 0.175920 0.238273
vt 0.168539 0.278057
vt 0.130818 0.211913
vt 0.178512 0.214651
vt 0.119964 0.229626
vt 0.174952 0.227813
vt 0.101734 0.281733
vt 0.310553 0.231738
vt 0.106194 0.291666
vt 0.131453 0.290519
vt 0.278257 0.252535
vt 0.127888 0.294922
vt 0.324861 0.240400
vt 0.104853 0.318325
vt 0.102368 0.300673
vt 0.137221 0.303954
vt 0.172499 0.306401
vt 0.171474 0.318004
vt 0.144163 0.290105
vt 0.344896 0.858154
vt 0.351753 0.958652
vt 0.278742 0.958938
vt 0.277703 0.858417
vt 0.314331 0.235666
vt 0.113054 0.634354
vt 0.177927 0.522366
vt 0.324611 0.252848
vt 0.344608 0.253101
vt 0.111284 0.699583
vt 0.177997 0.577150
vt 0.277728 0.533547
vt 0.344074 0.663496
vt 0.286612 0.246797
vt 0.115304 0.691130
vt 0.177572 0.553619
vt 0.339952 0.654687
vt 0.350225 0.245757
vt 0.113566 0.677871
vt 0.172151 0.539338
vt 0.280835 0.505619
vt 0.343919 0.626772
vt 0.173531 0.289149
vt 0.136934 0.294879
vt 0.474026 0.597766
vt 0.474026 0.608701
vt 0.532496 0.267584
vt 0.531120 0.280615
vt 0.514490 0.455171
vt 0.512308 0.479646
vt 0.094281 0.291790
vt 0.090455 0.300797
vt 0.101654 0.677996
vt 0.103391 0.691254
vt 0.482939 0.517543
vt 0.482939 0.506817
vt 0.623264 0.527724
vt 0.623264 0.600204
vt 0.362595 0.264589
vt 0.355451 0.253125
vt 0.596511 0.232538
vt 0.596511 0.247993
vt 0.474026 0.626158
vt 0.482939 0.527549
vt 0.089821 0.281857
vt 0.604894 0.543331
vt 0.604641 0.560862
vt 0.361067 0.245781
vt 0.350794 0.654711
vt 0.354761 0.626797
vt 0.482939 0.561289
vt 0.532496 0.246254
vt 0.532496 0.230990
vt 0.604894 0.597337
vt 0.411431 0.607008
vt 0.416899 0.607008
vt 0.112268 0.240969
vt 0.530506 0.252967
vt 0.337464 0.204784
vt 0.101141 0.634478
vt 0.499552 0.612609
vt 0.489904 0.612609
vt 0.532496 0.016696
vt 0.532496 0.001218
vt 0.108051 0.229750
vt 0.531279 0.000321
vt 0.531351 0.009133
vt 0.459183 0.597766
vt 0.459183 0.615801
vt 0.341576 0.193529
vt 0.532496 0.026977
vt 0.354584 0.584997
vt 0.531071 0.025163
vt 0.615659 0.603784
vt 0.621568 0.603784
vt 0.118905 0.212037
vt 0.532496 0.217623
vt 0.530816 0.604695
vt 0.530506 0.705042
vt 0.332239 0.170949
vt 0.531700 0.223708
vt 0.532496 0.657504
vt 0.532496 0.565005
vt 0.610569 0.603784
vt 0.092941 0.318449
vt 0.132523 0.169585
vt 0.099371 0.699707
vt 0.101109 0.899447
vt 0.621770 0.206747
vt 0.621770 0.239780
vt 0.316213 0.128625
vt 0.357184 0.277138
vt 0.355738 0.858178
vt 0.354916 0.663521
vt 0.587220 0.599156
vt 0.587220 0.608877
vt 0.152393 0.100772
vt 0.532496 0.268081
vt 0.433245 0.607008
vt 0.435536 0.607008
vt 0.499647 0.609116
vt 0.499647 0.541898
vt 0.623264 0.431904
vt 0.623264 0.504956
vt 0.393316 0.602618
vt 0.393316 0.610971
vt 0.587220 0.564840
vt 0.419945 0.621851
vt 0.417074 0.621851
vt 0.362595 0.958676
vt 0.402715 0.600390
vt 0.393642 0.600467
vt 0.459183 0.628768
vt 0.482939 0.475541
vt 0.482939 0.309926
vt 0.604629 0.261547
vt 0.604629 0.361148
vt 0.095190 1.000000
vt 0.393642 0.571022
vt 0.405603 0.571022
vt 0.512308 0.310443
vt 0.513570 0.401880
vt 0.499647 0.479685
vt 0.411431 0.621851
vt 0.407841 0.621851
vt 0.482939 0.493867
vt 0.602853 0.613898
vt 0.594888 0.613898
vt 0.393316 0.574369
vt 0.590115 0.613898
vt 0.448611 0.580223
vt 0.447945 0.597715
vt 0.444468 0.596818
vt 0.445081 0.580281
vt 0.624057 0.261816
vt 0.624057 0.290324
vt 0.620506 0.291108
vt 0.565290 0.601732
vt 0.569093 0.581792
vt 0.572377 0.581792
vt 0.568873 0.600594
vt 0.444468 0.560019
vt 0.447945 0.558687
vt 0.620507 0.291966
vt 0.624057 0.291108
vt 0.624057 0.321258
vt 0.620507 0.320474
vt 0.565290 0.561852
vt 0.568873 0.562990
vt 0.424405 0.567840
vt 0.416733 0.573478
vt 0.405603 0.567764
vt 0.424405 0.558687
vt 0.567280 0.523496
vt 0.567280 0.515899
vt 0.432077 0.573478
vt 0.443206 0.567764
vt 0.582118 0.120735
vt 0.594297 0.123805
vt 0.596393 -0.000000
vt 0.606673 0.000654
vt 0.582837 0.000383
vt 0.606477 0.120735
s 1
f 266/1/1 36/2/1 15/3/1 264/4/1
f 38/5/2 13/6/2 9/7/2 42/8/2
f 40/9/3 11/10/3 7/11/3 44/12/3
f 29/13/4 23/14/5 11/10/6 40/9/6
f 27/15/7 25/16/8 13/17/9 38/18/9
f 42/19/10 9/20/10 6/21/10 45/22/10
f 33/23/11 18/24/11 25/25/8 27/26/7
f 31/27/12 20/28/12 23/14/5 29/13/4
f 30/29/13 21/30/14 5/31/14 46/32/13
f 46/32/15 5/31/15 3/33/15 48/34/15
f 48/34/16 3/33/16 1/35/16 50/36/16
f 34/37/17 17/38/17 18/39/17 33/40/17
f 50/36/18 1/35/18 55/41/18 52/42/18
f 19/43/11 32/44/11 28/45/19 24/46/20
f 30/47/21 33/48/21 27/49/21 26/50/21
f 21/51/12 30/52/12 26/53/22 22/54/23
f 22/54/23 26/53/22 41/55/24 10/56/24
f 28/57/21 29/58/21 40/59/21 39/60/21
f 32/61/21 31/62/21 29/58/21 28/57/21
f 15/3/25 36/2/25 32/63/25 19/64/25
f 36/65/26 34/66/26 33/48/21 32/61/21
f 32/61/21 33/48/21 30/47/21 31/62/21
f 265/67/27 34/66/26 36/65/26 266/68/27
f 263/69/28 17/38/28 34/37/28 265/70/28
f 24/46/20 28/45/19 39/71/29 12/72/29
f 26/50/21 27/49/21 38/73/21 41/74/21
f 8/75/30 43/76/30 44/77/30 7/78/30
f 39/60/21 40/59/21 44/79/21 43/80/21
f 10/56/31 41/55/31 45/81/31 6/82/31
f 12/83/32 39/84/32 43/76/32 8/75/32
f 41/74/21 38/73/21 42/85/21 45/86/21
f 4/87/33 47/88/33 49/89/33 2/90/33
f 31/62/21 30/47/21 46/91/21 47/92/21
f 20/93/34 31/94/35 47/88/35 4/87/34
f 47/92/21 46/91/21 48/95/21 49/96/21
f 54/97/36 51/98/36 53/99/36 56/100/36
f 49/96/21 48/95/21 50/101/21 51/102/21
f 2/90/37 49/89/37 51/98/37 54/97/37
f 55/103/38 56/104/38 53/105/38 52/106/38
f 51/102/21 50/101/21 52/107/21 53/108/21
f 60/109/39 59/110/39 89/111/39 92/112/39
f 87/113/40 88/114/40 62/115/41 64/116/41
f 85/117/42 86/118/42 63/119/43 61/120/43
f 83/121/44 84/122/44 68/123/45 67/124/45
f 77/125/46 82/126/46 65/127/47 66/128/47
f 64/116/41 62/115/41 70/129/48 72/130/48
f 66/128/47 65/127/47 73/131/49 74/132/49
f 61/120/43 63/119/43 71/133/50 69/134/50
f 67/124/45 68/123/45 76/135/51 75/136/51
f 57/137/52 78/138/53 79/139/54
f 58/140/55 79/139/54 80/141/56
f 60/142/57 80/141/56 81/143/58
f 59/144/59 81/143/58 78/138/53
f 80/141/56 79/139/54 82/126/46 77/125/46
f 78/138/53 81/143/58 84/122/44 83/121/44
f 79/139/54 78/138/53 86/118/42 85/117/42
f 81/143/58 80/141/56 88/114/40 87/113/40
f 58/140/55 57/137/52 79/139/54
f 60/142/57 58/140/55 80/141/56
f 59/144/59 60/142/57 81/143/58
f 57/137/52 59/144/59 78/138/53
f 90/145/21 91/146/21 92/147/21 89/148/21
f 57/149/60 58/150/60 91/151/60 90/152/60
f 58/153/61 60/154/61 92/155/61 91/156/61
f 59/144/62 57/137/62 90/145/62 89/148/62
f 68/157/63 107/158/63 119/159/63 76/160/63
f 77/161/64 111/162/64 95/163/64 80/164/64
f 82/165/65 112/166/65 105/167/65 65/168/65
f 61/169/66 98/170/66 103/171/66 85/172/66
f 71/173/67 113/174/67 114/175/67 69/176/67
f 78/177/68 93/178/68 104/179/68 86/180/68
f 70/181/69 115/182/69 116/183/69 72/184/69
f 73/185/70 117/186/70 118/187/70 74/188/70
f 64/189/68 100/190/68 101/191/68 87/192/68
f 76/193/71 119/194/71 120/195/71 75/196/71
f 80/197/66 95/198/66 102/199/66 88/200/66
f 87/192/72 101/191/72 96/201/72 81/202/72
f 72/203/73 116/204/73 100/190/73 64/189/73
f 88/205/74 102/206/74 99/207/74 62/208/74
f 62/209/75 99/210/75 115/211/75 70/212/75
f 85/213/74 103/214/74 94/215/74 79/216/74
f 74/188/76 118/187/76 106/217/76 66/218/76
f 86/180/72 104/179/72 97/219/72 63/220/72
f 66/221/77 106/222/77 111/162/77 77/161/77
f 65/168/78 105/167/78 117/223/78 73/224/78
f 79/216/79 94/215/79 112/166/79 82/165/79
f 69/176/80 114/175/80 98/225/80 61/226/80
f 63/220/81 97/219/81 113/227/81 71/228/81
f 83/229/65 109/230/65 93/231/65 78/232/65
f 67/233/79 108/234/79 109/230/79 83/229/79
f 75/196/82 120/195/82 108/235/82 67/236/82
f 84/237/64 110/238/64 107/158/64 68/157/64
f 81/239/77 96/240/77 110/238/77 84/237/77
f 268/241/83 264/4/83 15/3/83 131/242/83
f 133/243/84 137/244/84 9/7/84 13/6/84
f 135/245/85 139/246/85 7/11/85 11/10/85
f 124/247/86 135/245/87 11/10/87 23/14/88
f 122/248/89 133/249/90 13/17/90 25/16/91
f 137/250/92 140/251/92 6/21/92 9/20/92
f 128/252/93 122/253/89 25/25/91 18/24/93
f 126/254/94 124/247/86 23/14/88 20/28/94
f 125/255/95 141/256/95 5/31/14 21/30/14
f 141/256/96 143/257/96 3/33/96 5/31/96
f 143/258/97 145/259/97 1/260/97 3/261/97
f 129/262/98 128/263/98 18/39/98 17/38/98
f 145/264/99 147/265/99 55/41/99 1/35/99
f 19/43/93 24/46/100 123/266/101 127/267/93
f 125/268/102 121/269/102 122/270/102 128/271/102
f 21/51/94 22/54/103 121/272/104 125/273/94
f 22/54/103 10/56/105 136/274/105 121/272/104
f 123/275/102 134/276/102 135/277/102 124/278/102
f 127/279/102 123/275/102 124/278/102 126/280/102
f 15/3/106 19/64/106 127/281/106 131/242/106
f 131/282/107 127/279/102 128/271/102 129/283/107
f 127/279/102 126/280/102 125/268/102 128/271/102
f 267/284/108 268/285/108 131/282/107 129/283/107
f 263/69/109 267/286/109 129/262/109 17/38/109
f 24/46/100 12/72/110 134/287/110 123/266/101
f 121/269/102 136/288/102 133/289/102 122/270/102
f 8/75/111 7/78/111 139/290/111 138/291/111
f 134/276/102 138/292/102 139/293/102 135/277/102
f 10/56/112 6/82/112 140/294/112 136/274/112
f 12/83/113 8/75/113 138/291/113 134/295/113
f 136/288/102 140/296/102 137/297/102 133/289/102
f 4/87/114 2/90/114 144/298/114 142/299/114
f 126/280/102 142/300/102 141/301/102 125/268/102
f 20/93/34 4/87/34 142/299/115 126/302/115
f 142/300/102 144/303/102 143/304/102 141/301/102
f 54/97/116 56/100/116 148/305/116 146/306/116
f 144/303/102 146/307/102 145/308/102 143/304/102
f 2/90/117 54/97/117 146/306/117 144/298/117
f 55/103/118 147/309/118 148/310/118 56/104/118
f 146/307/102 148/311/102 147/312/102 145/308/102
f 152/313/119 184/314/119 181/315/119 151/316/119
f 179/317/120 156/318/121 154/319/121 180/320/120
f 177/321/122 153/322/123 155/323/123 178/324/122
f 175/325/124 159/326/125 160/327/125 176/328/124
f 169/329/126 158/330/127 157/331/127 174/332/126
f 156/318/121 164/333/128 162/334/128 154/319/121
f 158/330/127 166/335/129 165/336/129 157/331/127
f 153/322/123 161/337/130 163/338/130 155/323/123
f 159/326/125 167/339/131 168/340/131 160/327/125
f 149/341/132 171/342/133 170/343/134
f 150/344/135 172/345/136 171/342/133
f 152/313/137 173/346/138 172/345/136
f 151/316/139 170/343/134 173/346/138
f 172/345/136 169/329/126 174/332/126 171/342/133
f 170/343/134 175/325/124 176/328/124 173/346/138
f 171/342/133 177/321/122 178/324/122 170/343/134
f 173/346/138 179/317/120 180/320/120 172/345/136
f 150/344/135 171/342/133 149/341/132
f 152/313/137 172/345/136 150/344/135
f 151/316/139 173/346/138 152/313/137
f 149/341/132 170/343/134 151/316/139
f 182/347/102 181/315/102 184/314/102 183/348/102
f 149/349/140 182/350/140 183/351/140 150/352/140
f 150/353/141 183/354/141 184/355/141 152/356/141
f 151/316/142 181/315/142 182/347/142 149/341/142
f 160/357/63 168/358/63 211/359/63 199/360/63
f 169/361/64 172/362/64 187/363/64 203/364/64
f 174/365/65 157/366/65 197/367/65 204/368/65
f 153/369/66 177/370/66 195/371/66 190/372/66
f 163/373/67 161/374/67 206/375/67 205/376/67
f 170/377/68 178/378/68 196/379/68 185/380/68
f 162/381/69 164/382/69 208/383/69 207/384/69
f 165/385/70 166/386/70 210/187/70 209/387/70
f 156/388/68 179/389/68 193/390/68 192/391/68
f 168/392/71 167/393/71 212/394/71 211/395/71
f 172/396/66 180/397/66 194/199/66 187/398/66
f 179/389/72 173/399/72 188/400/72 193/390/72
f 164/401/73 156/388/73 192/391/73 208/402/73
f 180/403/74 154/404/74 191/405/74 194/406/74
f 154/407/75 162/408/75 207/409/75 191/410/75
f 177/411/74 171/412/74 186/413/74 195/414/74
f 166/386/76 158/415/76 198/416/76 210/187/76
f 178/378/72 155/417/72 189/418/72 196/379/72
f 158/419/77 169/361/77 203/364/77 198/420/77
f 157/366/78 165/421/78 209/422/78 197/367/78
f 171/412/79 174/365/79 204/368/79 186/413/79
f 161/374/80 153/423/80 190/424/80 206/375/80
f 155/417/81 163/425/81 205/426/81 189/418/81
f 175/427/65 170/428/65 185/429/65 201/430/65
f 159/431/79 175/427/79 201/430/79 200/432/79
f 167/393/82 159/433/82 200/434/82 212/394/82
f 176/435/64 160/357/64 199/360/64 202/436/64
f 173/437/77 176/435/77 202/436/77 188/438/77
f 521/439/143 524/440/143 215/441/143 216/442/143
f 524/443/144 526/444/145 218/445/146 215/446/146
f 523/447/147 525/448/147 214/449/147 213/450/147
f 522/451/148 521/452/149 216/453/150 217/454/150
f 525/455/151 522/451/152 217/454/153 214/456/153
f 526/444/154 523/457/155 213/458/156 218/445/156
f 232/459/70 231/460/70 252/461/70 253/462/70
f 220/463/70 219/464/70 241/465/70 242/466/70
f 230/467/71 216/453/71 240/468/71 251/469/71
f 224/470/70 221/471/70 235/472/70 231/460/70
f 214/456/71 217/454/71 228/473/71 227/474/71
f 228/473/71 230/467/71 251/469/71 250/475/71
f 219/464/70 220/463/70 223/476/70 222/477/70 221/471/70 224/470/70
f 235/472/70 221/471/70 243/478/70 245/479/70
f 222/477/70 236/480/70 256/481/70 244/482/70
f 229/483/71 225/484/71 247/485/71 246/486/71
f 227/474/71 228/473/71 250/475/71 249/487/71
f 219/464/70 224/470/70 231/460/70 232/459/70
f 215/446/71 218/445/71 225/484/71 229/483/71
f 218/445/71 213/458/71 226/488/71 225/484/71
f 216/453/71 215/446/71 239/489/71 240/468/71
f 222/477/70 223/476/70 234/490/70 236/480/70
f 223/476/70 220/463/70 233/491/70 234/490/70
f 233/491/70 220/463/70 242/466/70 254/492/70
f 217/454/71 216/453/71 230/467/71 228/473/71
f 240/493/21 244/494/21 256/495/157 251/496/157
f 237/497/102 238/498/102 242/499/102 241/500/102
f 240/493/21 239/501/21 243/502/21 244/494/21
f 243/502/21 239/501/21 246/503/158 245/504/158
f 246/503/158 247/505/159 252/506/159 245/504/158
f 249/507/160 250/508/161 255/509/161 254/510/160
f 247/511/162 248/512/163 253/513/163 252/514/162
f 250/515/164 251/496/157 256/495/157 255/516/164
f 237/497/102 241/500/102 253/513/163 248/512/163
f 242/499/102 238/498/102 249/507/160 254/510/160
f 219/464/70 232/459/70 253/462/70 241/465/70
f 234/490/70 233/491/70 254/492/70 255/517/70
f 213/458/71 214/456/71 238/518/71 237/519/71
f 231/460/70 235/472/70 245/479/70 252/461/70
f 226/488/71 213/458/71 237/519/71 248/520/71
f 215/446/71 229/483/71 246/486/71 239/489/71
f 221/471/70 222/477/70 244/482/70 243/478/70
f 236/480/70 234/490/70 255/517/70 256/481/70
f 225/484/71 226/488/71 248/520/71 247/485/71
f 214/456/71 227/474/71 249/487/71 238/518/71
f 14/521/165 132/522/165 261/523/166 262/524/167
f 130/525/168 16/526/168 259/527/169 260/528/170
f 16/526/171 35/529/171 258/530/172 259/527/173
f 132/531/102 130/532/102 260/533/174 261/534/174
f 37/535/175 14/521/175 262/524/176 257/536/177
f 35/537/21 37/538/21 257/539/178 258/540/178
f 130/541/179 132/542/180 517/543/181 516/544/182
f 37/545/183 35/546/184 511/547/185 514/548/186
f 35/546/184 16/549/187 510/550/187 511/547/185
f 264/551/188 268/552/189 520/553/190 512/554/188
f 266/555/191 264/551/188 512/554/188 519/556/192
f 16/549/187 130/541/179 516/544/182 510/550/187
f 411/557/21 409/558/21 352/559/21 375/560/21
f 373/561/21 349/562/21 353/563/21 377/564/21
f 375/560/21 352/559/21 356/565/21 379/566/21
f 379/566/21 356/565/21 420/567/21
f 356/565/21 414/568/21 420/567/21
f 385/569/21 383/570/21 419/571/21
f 385/569/21 362/572/21 364/573/21 387/574/21
f 387/574/21 364/573/21 366/575/21 389/576/21
f 389/576/21 366/575/21 368/577/21 391/578/21
f 391/578/21 368/577/21 370/579/21 393/580/21
f 393/580/21 370/579/21 372/581/21 395/582/21
f 369/583/21 394/584/21 396/585/21 371/586/21
f 361/587/21 423/588/21 428/589/21
f 367/590/21 392/591/21 394/584/21 369/583/21
f 422/592/21 384/593/21 386/594/21
f 365/595/21 390/596/21 392/591/21 367/590/21
f 428/589/21 422/592/21 386/594/21
f 363/597/21 388/598/21 390/596/21 365/595/21
f 361/587/21 359/599/21 423/588/21
f 361/587/21 386/594/21 388/598/21 363/597/21
f 362/572/21 385/569/21 419/571/21
f 386/594/21 361/587/21 428/589/21
f 383/570/21 418/600/21 419/571/21
f 357/601/21 425/602/21 423/588/21 359/599/21
f 420/567/21 381/603/21 379/566/21
f 427/604/21 425/602/21 357/601/21
f 419/571/21 413/605/21 362/572/21
f 351/606/21 376/607/21 380/608/21 421/609/21 355/610/21
f 380/608/21 424/611/21 421/609/21
f 350/612/21 374/613/21 378/614/21 354/615/21
f 383/570/21 417/616/21 418/600/21
f 412/617/21 410/618/21 376/607/21 351/606/21
f 420/567/21 415/619/21 381/603/21
f 356/565/21 358/620/21 414/568/21
f 349/562/21 373/561/21 399/621/21 397/622/21
f 374/613/21 350/612/21 398/623/21 400/624/21
f 415/619/21 416/625/21 381/603/21
f 397/622/21 399/621/21 402/626/21 404/627/21
f 400/624/21 398/623/21 401/628/21 403/629/21
f 413/605/21 414/568/21 358/620/21 360/630/21
f 404/627/21 402/626/21 406/631/21 408/632/21
f 403/629/21 401/628/21 405/633/21 407/634/21
f 413/605/21 360/630/21 362/572/21
f 408/632/21 406/631/21 410/618/21 412/617/21
f 407/634/21 405/633/21 409/558/21 411/557/21
f 357/601/21 355/610/21 427/604/21
f 355/610/21 421/609/21 427/604/21
f 382/635/21 424/611/21 380/608/21
f 424/611/21 426/636/21 421/609/21
f 348/637/193 342/638/194 422/639/195 428/640/193
f 323/641/196 320/642/197 400/643/198 403/644/196
f 311/645/199 309/646/200 389/647/200 391/648/201
f 277/649/202 275/650/203 355/610/204 357/601/205
f 328/651/206 324/652/207 404/627/208 408/632/209
f 308/653/210 310/654/211 390/655/211 388/656/212
f 273/657/71 297/658/71 377/659/71 353/660/71
f 276/661/213 278/662/213 358/620/213 356/565/213
f 309/663/214 307/664/214 387/665/215 389/666/215
f 342/638/194 304/667/216 384/668/217 422/639/195
f 306/669/218 308/653/210 388/656/212 386/670/219
f 279/671/220 277/649/202 357/601/205 359/599/221
f 307/672/222 305/673/223 385/674/224 387/675/222
f 278/662/225 280/676/225 360/630/225 358/620/225
f 321/677/226 325/678/227 405/633/228 401/628/229
f 304/679/230 306/669/218 386/670/219 384/680/230
f 322/681/231 326/682/232 406/683/233 402/684/234
f 305/673/223 303/685/235 383/686/235 385/674/224
f 340/687/236 335/688/236 415/689/237 420/690/237
f 281/691/238 279/671/220 359/599/221 361/587/239
f 327/692/240 323/641/240 403/644/240 407/693/240
f 280/676/241 282/694/242 362/572/243 360/630/241
f 332/695/244 328/651/206 408/632/209 412/617/244
f 334/696/245 340/697/245 420/698/246 414/699/246
f 300/700/247 302/701/248 382/702/248 380/703/249
f 283/704/250 281/691/238 361/587/239 363/597/251
f 301/705/252 299/706/253 379/707/254 381/708/252
f 339/709/255 333/710/256 413/711/257 419/712/258
f 282/694/242 284/713/259 364/573/260 362/572/243
f 296/714/261 300/700/247 380/703/249 376/715/262
f 325/678/227 329/716/263 409/558/263 405/633/228
f 299/706/253 295/717/264 375/718/265 379/707/254
f 338/719/266 339/720/266 419/721/267 418/722/267
f 285/723/268 283/704/250 363/597/251 365/595/269
f 326/682/232 330/724/270 410/725/271 406/683/233
f 294/726/272 298/727/273 378/728/273 374/729/272
f 284/713/259 286/730/274 366/575/275 364/573/260
f 331/731/276 327/692/277 407/693/277 411/732/278
f 297/733/279 293/734/280 373/735/280 377/736/279
f 337/737/281 338/719/281 418/722/282 417/738/282
f 271/739/283 332/695/244 412/617/244 351/606/284
f 330/724/270 296/714/261 376/715/262 410/725/271
f 287/740/285 285/723/268 365/595/269 367/590/286
f 317/741/287 269/742/288 349/562/289 397/622/290
f 295/717/264 331/731/276 411/732/278 375/718/265
f 303/743/291 337/744/291 417/745/292 383/746/292
f 286/730/274 288/747/293 368/577/294 366/575/275
f 324/652/207 317/741/287 397/622/290 404/627/208
f 329/716/263 272/748/295 352/559/296 409/558/263
f 270/749/297 318/750/298 398/623/299 350/612/300
f 336/751/301 301/752/301 381/753/301 416/754/301
f 289/755/302 287/756/285 367/757/286 369/758/303
f 293/734/280 319/759/304 399/760/304 373/735/280
f 292/761/305 315/762/305 395/763/306 372/764/306
f 288/765/293 290/766/307 370/767/308 368/768/294
f 298/769/71 274/770/71 354/771/71 378/772/71
f 344/773/309 346/774/309 426/775/310 424/776/310
f 320/642/197 294/726/272 374/729/272 400/643/198
f 335/777/311 336/751/311 416/754/311 415/778/311
f 316/779/312 291/780/312 371/781/313 396/782/313
f 274/783/314 270/749/297 350/612/300 354/615/314
f 346/784/315 341/785/315 421/786/316 426/787/316
f 333/710/256 334/788/317 414/789/318 413/711/257
f 314/790/319 316/791/320 396/792/320 394/793/321
f 291/794/322 289/755/302 369/758/303 371/795/322
f 269/742/288 273/796/323 353/563/323 349/562/289
f 341/797/324 347/798/324 427/799/325 421/800/325
f 315/801/326 313/802/327 393/803/328 395/804/326
f 290/766/307 292/805/329 372/806/329 370/767/308
f 347/807/330 345/808/331 425/809/332 427/810/330
f 312/811/333 314/790/319 394/793/321 392/812/333
f 275/650/203 271/739/283 351/606/284 355/610/204
f 345/813/331 343/814/334 423/815/334 425/816/332
f 318/750/298 321/677/226 401/628/229 398/623/299
f 313/802/327 311/645/199 391/648/201 393/803/328
f 302/817/335 344/773/335 424/776/335 382/818/335
f 272/748/295 276/661/336 356/565/336 352/559/296
f 343/814/334 348/819/334 428/820/334 423/815/334
f 319/759/304 322/681/231 402/684/234 399/760/304
f 310/654/337 312/811/337 392/812/337 390/655/337
f 491/821/102 455/822/102 432/823/102 489/824/102
f 453/825/102 457/826/102 433/827/102 429/828/102
f 455/822/102 459/829/102 436/830/102 432/823/102
f 459/829/102 500/831/102 436/830/102
f 436/830/102 500/831/102 494/832/102
f 465/833/102 499/834/102 463/835/102
f 465/833/102 467/836/102 444/837/102 442/838/102
f 467/836/102 469/839/102 446/840/102 444/837/102
f 469/839/102 471/841/102 448/842/102 446/840/102
f 471/841/102 473/843/102 450/844/102 448/842/102
f 473/843/102 475/845/102 452/846/102 450/844/102
f 449/847/102 451/848/102 476/849/102 474/850/102
f 441/851/102 508/852/102 503/853/102
f 447/854/102 449/847/102 474/850/102 472/855/102
f 502/856/102 466/857/102 464/858/102
f 445/859/102 447/854/102 472/855/102 470/860/102
f 508/852/102 466/857/102 502/856/102
f 443/861/102 445/859/102 470/860/102 468/862/102
f 441/851/102 503/853/102 439/863/102
f 441/851/102 443/861/102 468/862/102 466/857/102
f 442/838/102 499/834/102 465/833/102
f 466/857/102 508/852/102 441/851/102
f 463/835/102 499/834/102 498/864/102
f 437/865/102 439/863/102 503/853/102 505/866/102
f 500/831/102 459/829/102 461/867/102
f 507/868/102 437/865/102 505/866/102
f 499/834/102 442/838/102 493/869/102
f 431/870/102 435/871/102 501/872/102 460/873/102 456/874/102
f 460/873/102 501/872/102 504/875/102
f 430/876/102 434/877/102 458/878/102 454/879/102
f 463/835/102 498/864/102 497/880/102
f 492/881/102 431/870/102 456/874/102 490/882/102
f 500/831/102 461/867/102 495/883/102
f 436/830/102 494/832/102 438/884/102
f 429/828/102 477/885/102 479/886/102 453/825/102
f 454/879/102 480/887/102 478/888/102 430/876/102
f 495/883/102 461/867/102 496/889/102
f 477/885/102 484/890/102 482/891/102 479/886/102
f 480/887/102 483/629/102 481/892/102 478/888/102
f 493/869/102 440/893/102 438/884/102 494/832/102
f 484/890/102 488/894/102 486/895/102 482/891/102
f 483/629/102 487/896/102 485/897/102 481/892/102
f 493/869/102 442/838/102 440/893/102
f 488/894/102 492/881/102 490/882/102 486/895/102
f 487/896/102 491/821/102 489/824/102 485/897/102
f 437/865/102 507/868/102 435/871/102
f 435/871/102 507/868/102 501/872/102
f 462/898/102 460/873/102 504/875/102
f 504/875/102 501/872/102 506/899/102
f 348/637/338 508/900/338 502/901/339 342/638/194
f 323/641/340 483/902/340 480/903/341 320/642/342
f 311/645/343 471/904/344 469/905/345 309/646/345
f 277/906/346 437/865/347 435/871/348 275/907/349
f 328/908/350 488/894/351 484/890/352 324/909/353
f 308/653/354 468/910/355 470/911/356 310/654/356
f 273/657/71 433/912/71 457/913/71 297/658/71
f 276/914/357 436/830/357 438/884/357 278/915/357
f 309/663/214 469/916/358 467/917/358 307/664/214
f 342/638/194 502/901/339 464/918/359 304/667/216
f 306/669/360 466/919/361 468/910/355 308/653/354
f 279/920/362 439/863/363 437/865/347 277/906/346
f 307/672/364 467/921/364 465/922/365 305/673/366
f 278/915/367 438/884/367 440/893/367 280/923/367
f 321/924/368 481/892/369 485/897/370 325/925/371
f 304/679/372 464/926/372 466/919/361 306/669/360
f 322/681/373 482/927/374 486/928/375 326/682/376
f 305/673/366 465/922/365 463/929/377 303/685/377
f 340/687/236 500/930/378 495/931/378 335/688/236
f 281/932/379 441/851/380 439/863/363 279/920/362
f 327/692/381 487/933/381 483/902/381 323/641/381
f 280/923/382 440/893/382 442/838/383 282/934/384
f 332/935/385 492/881/385 488/894/351 328/908/350
f 334/696/245 494/936/386 500/937/386 340/697/245
f 300/700/387 460/938/388 462/939/389 302/701/389
f 283/940/390 443/861/391 441/851/380 281/932/379
f 301/705/392 461/941/392 459/942/393 299/706/394
f 339/709/255 499/943/395 493/944/396 333/710/256
f 282/934/384 442/838/383 444/837/397 284/945/398
f 296/714/399 456/946/400 460/938/388 300/700/387
f 325/925/371 485/897/370 489/824/401 329/947/401
f 299/706/394 459/942/393 455/948/402 295/717/403
f 338/719/266 498/949/404 499/950/404 339/720/266
f 285/951/405 445/859/406 443/861/391 283/940/390
f 326/682/376 486/928/375 490/952/407 330/724/408
f 294/726/409 454/953/409 458/954/410 298/727/410
f 284/945/398 444/837/397 446/840/411 286/955/412
f 331/731/413 491/956/414 487/933/415 327/692/415
f 297/733/416 457/957/416 453/958/417 293/734/417
f 337/737/281 497/959/418 498/949/418 338/719/281
f 271/960/419 431/870/420 492/881/385 332/935/385
f 330/724/408 490/952/407 456/946/400 296/714/399
f 287/961/421 447/854/422 445/859/406 285/951/405
f 317/962/423 477/885/424 429/828/425 269/963/426
f 295/717/403 455/948/402 491/956/414 331/731/413
f 303/743/291 463/964/427 497/965/427 337/744/291
f 286/955/412 446/840/411 448/842/428 288/966/429
f 324/909/353 484/890/352 477/885/424 317/962/423
f 329/947/401 489/824/401 432/823/430 272/967/431
f 270/968/432 430/876/433 478/888/434 318/969/435
f 336/751/436 496/970/436 461/971/436 301/752/436
f 289/972/437 449/847/438 447/854/422 287/961/421
f 293/734/417 453/958/417 479/973/439 319/759/439
f 292/761/305 452/974/440 475/975/440 315/762/305
f 288/765/429 448/976/428 450/977/441 290/766/442
f 298/769/71 458/978/71 434/979/71 274/770/71
f 344/773/309 504/980/443 506/981/443 346/774/309
f 320/642/342 480/903/341 454/953/409 294/726/409
f 335/777/444 495/982/444 496/970/444 336/751/444
f 316/779/312 476/983/445 451/984/445 291/780/312
f 274/985/446 434/877/446 430/876/433 270/968/432
f 346/784/315 506/986/447 501/987/447 341/785/315
f 333/710/256 493/944/396 494/988/448 334/788/317
f 314/790/449 474/989/450 476/990/451 316/791/451
f 291/794/452 451/991/452 449/992/438 289/755/437
f 269/963/426 429/828/425 433/827/453 273/993/453
f 341/797/324 501/994/454 507/995/454 347/798/324
f 315/801/455 475/996/455 473/997/456 313/802/457
f 290/766/442 450/977/441 452/998/458 292/805/458
f 347/807/459 507/999/459 505/1000/460 345/808/461
f 312/811/462 472/1001/462 474/989/450 314/790/449
f 275/907/349 435/871/348 431/870/420 271/960/419
f 345/813/461 505/1002/460 503/1003/463 343/814/463
f 318/969/435 478/888/434 481/892/369 321/924/368
f 313/802/457 473/997/456 471/904/344 311/645/343
f 302/817/464 462/1004/464 504/980/464 344/773/464
f 272/967/431 432/823/430 436/830/465 276/914/465
f 343/814/463 503/1003/463 508/1005/463 348/819/463
f 319/759/439 479/973/439 482/927/374 322/681/373
f 310/654/466 470/911/466 472/1001/466 312/811/466
f 510/1006/467 516/1007/467 518/1008/467 509/1009/467
f 516/1010/468 517/1011/468 520/1012/468 518/94/468
f 517/1013/469 513/1014/469 512/1015/469 520/1016/469
f 510/1006/470 509/1009/470 515/1017/470 511/1018/470
f 511/1019/471 515/1020/471 519/1021/471 514/1022/471
f 514/1023/472 519/1024/472 512/1015/472 513/1014/472
f 263/1025/473 265/1026/474 515/1027/475 509/1028/473
f 14/1029/476 37/545/183 514/548/186 513/1030/476
f 132/542/180 14/1029/476 513/1030/476 517/543/181
f 267/1031/477 263/1025/473 509/1028/473 518/1032/478
f 265/1026/474 266/555/191 519/556/192 515/1027/475
f 268/552/189 267/1031/477 518/1032/478 520/553/190
f 262/524/167 261/523/166 523/1033/155 526/1034/154
f 260/528/170 259/527/169 522/1035/152 525/1036/151
f 259/527/173 258/530/172 521/1037/149 522/1035/148
f 261/534/174 260/533/174 525/448/479 523/447/479
f 257/536/177 262/524/176 526/1034/145 524/1038/144
f 258/540/178 257/539/178 524/440/480 521/439/480
